<?xml version="1.0" encoding="utf-8"?>
<!-- Generator: Adobe Illustrator 17.1.0, SVG Export Plug-In . SVG Version: 6.00 Build 0)  -->
<!DOCTYPE svg PUBLIC "-//W3C//DTD SVG 1.1//EN" "http://www.w3.org/Graphics/SVG/1.1/DTD/svg11.dtd">
<svg version="1.1" id="Layer_1" xmlns="http://www.w3.org/2000/svg" xmlns:xlink="http://www.w3.org/1999/xlink" x="0px" y="0px"
	 viewBox="0 46.5 144 48" enable-background="new 0 46.5 144 48" xml:space="preserve">
<path d="M109.8,54.4h-6.7v32.7h7.5c3.1,0,4.6-1.6,4.6-4.7V60.7C115.2,56.5,113.4,54.4,109.8,54.4z M111.4,81.7c0,1-0.5,1.5-1.5,1.5
	H107V58.4h2.7c1.1,0,1.7,0.8,1.7,2.4L111.4,81.7L111.4,81.7z M44.4,54.3h-2.9c-3.1,0-4.6,1.9-4.6,5.6V87h3.8V75h4.4v12H49V59.9
	C49,56.2,47.5,54.3,44.4,54.3z M45.2,71h-4.4V60.2c0-1.3,0.6-1.9,1.7-1.9h1c1.1,0,1.7,0.6,1.7,1.9L45.2,71L45.2,71z M24.6,87h9.5v-4
	h-5.7V72.1h5.1v-4h-5.1v-9.9h5.7v-4h-9.5V87z M1.1,87h3.8V54.3H1.1V87z M139.2,54.4v17l-3.8-17h-4.3v32.7h3.7v-17v-1.5l4.5,18.6h3.6
	V54.4H139.2z M76.5,53.4c-9.5,0-17.3,7.8-17.3,17.3C59.2,80.3,67,88,76.5,88c9.5,0,17.3-7.8,17.3-17.3
	C93.8,61.2,86.1,53.4,76.5,53.4z M76.5,84.7c-0.8,0-1.7-0.2-1.7-0.2l-1-1.3c0,0,1.5,0,2.9-0.2c1.7-0.2,3.2-0.7,3.2-0.7l-1.8,2.3
	C78.2,84.5,77.2,84.7,76.5,84.7z M76.7,82.1c-2.6,0.4-4.5,0.3-4.5,0.3l0.7-0.8c0.3,0,2.3-0.1,4-0.4c2-0.3,3.2-0.8,3.5-0.8l1.1,0.5
	C81.4,80.9,79.5,81.7,76.7,82.1z M72.4,76.6c0.6,0.2,1.8,0.5,4,0.4c2.1,0,3.3-0.3,4-0.4c0,0.2,0,0.2,0,0.2l0.9,0.5
	c0,0-1.8,0.7-4.7,1c-3.3,0.4-5,0.2-5,0.2l0.8-0.9C72.5,77.8,72.4,77,72.4,76.6z M80.5,78.5l1,0.5c0,0-1.9,0.8-4.8,1.2
	c-3,0.4-4.8,0.3-4.8,0.3l0.8-1c0.2,0,2.4-0.1,4.1-0.3C79.1,79,80.2,78.6,80.5,78.5z M81.1,73.8c-0.1,0.9-0.3,1.8-0.8,2
	c-1.1,0.2-2,0.4-3.8,0.4c-2.2,0-3.5-0.3-3.9-0.4c-0.7-0.1-0.5-1.2-0.7-2c-0.2-1.1-2.5-4.4-3-6.1h0c-0.3-0.9-0.5-1.8-0.5-2.8
	c0-4.5,3.6-8.2,8.1-8.2s8.1,3.7,8.1,8.2c0,1.1-0.2,2.1-0.6,3C83.4,69.6,81.2,72.8,81.1,73.8z M62.8,71.6l0.9-1L61,68.9l4.6,1.2
	l-0.9,1l2.7,1.7L62.8,71.6z M85.5,73.1l3.1-1.9l-1.1-1.1l5.2-1.4l-3.1,2l1.1,1.1L85.5,73.1z M118.5,87.1h9.5v-4h-5.7V72.3h5.1v-4
	h-5.1v-9.9h5.7v-4h-9.5V87.1z M15.3,54.3H8.6V87h7.5c3.1,0,4.6-1.6,4.6-4.7V60.6C20.8,56.4,18.9,54.3,15.3,54.3z M16.9,81.6
	c0,1-0.5,1.5-1.5,1.5h-2.9V58.3h2.7c1.1,0,1.7,0.8,1.7,2.4L16.9,81.6L16.9,81.6z M99.7,71.8c0-0.3,0-0.7,0-1.1c0-0.4,0-0.7,0-1.1
	l-2.3-1.5c-0.1-0.5-0.1-1-0.2-1.5l1.7-2.1c-0.2-0.7-0.4-1.3-0.6-2l-2.6-0.7c-0.2-0.5-0.5-0.9-0.7-1.4l1-2.5
	c-0.4-0.6-0.8-1.2-1.2-1.7l-2.7,0.2c-0.4-0.4-0.7-0.7-1.1-1.1l0.2-2.7c-0.5-0.4-1.1-0.8-1.7-1.2l-2.6,1c-0.4-0.3-0.9-0.5-1.4-0.7
	L84.7,49c-0.7-0.2-1.3-0.5-2-0.6l-2.1,1.7c-0.5-0.1-1-0.2-1.5-0.2l-1.5-2.3c-0.3,0-0.7,0-1.1,0s-0.7,0-1.1,0L74,49.8
	c-0.5,0.1-1,0.1-1.5,0.2l-2.1-1.7c-0.7,0.2-1.3,0.4-2,0.6l-0.7,2.6c-0.5,0.2-0.9,0.5-1.4,0.7l-2.5-1c-0.6,0.4-1.2,0.8-1.7,1.2
	l0.2,2.7c-0.4,0.4-0.7,0.7-1.1,1.1l-2.7-0.2c-0.4,0.5-0.8,1.1-1.2,1.7l1,2.5c-0.3,0.5-0.5,0.9-0.7,1.4l-2.6,0.7
	c-0.2,0.6-0.5,1.3-0.6,2l1.7,2.1c-0.1,0.5-0.2,1-0.2,1.5l-2.3,1.5c0,0.3,0,0.7,0,1.1c0,0.4,0,0.7,0,1.1l2.3,1.5
	c0.1,0.5,0.1,1,0.2,1.5l-1.7,2.1c0.2,0.7,0.4,1.3,0.6,2l2.6,0.7c0.2,0.5,0.5,0.9,0.7,1.4l-1,2.6c0.4,0.6,0.8,1.1,1.2,1.7l2.7-0.2
	c0.4,0.4,0.7,0.7,1.1,1.1L62,88.9c0.5,0.4,1.1,0.8,1.7,1.2l2.5-1c0.4,0.2,0.9,0.5,1.4,0.7l0.7,2.6c0.7,0.2,1.3,0.5,2,0.6l2.1-1.7
	c0.5,0.1,1,0.2,1.5,0.2l1.5,2.3c0.3,0,0.7,0,1.1,0s0.7,0,1.1,0l1.5-2.3c0.5-0.1,1-0.1,1.5-0.2l2.1,1.7c0.7-0.2,1.3-0.4,2-0.6
	l0.7-2.6c0.5-0.2,0.9-0.5,1.4-0.7l2.6,1c0.6-0.4,1.2-0.8,1.7-1.2l-0.2-2.7c0.4-0.4,0.7-0.7,1.1-1.1l2.7,0.2c0.4-0.5,0.8-1.1,1.2-1.7
	l-1-2.6c0.3-0.4,0.5-0.9,0.7-1.4l2.6-0.7c0.2-0.6,0.5-1.3,0.6-2l-1.7-2.1c0.1-0.5,0.2-1,0.2-1.5L99.7,71.8z M76.5,89.1
	c-10.1,0-18.4-8.2-18.4-18.4c0-10.1,8.2-18.4,18.4-18.4s18.4,8.2,18.4,18.4S86.7,89.1,76.5,89.1z M76.9,74.6c0,0.1,0,0.2,0,0.3
	c-0.1,0-0.1,0-0.1-0.1c0,0-0.1,0-0.1,0c0,0,0,0,0,0c0,0-0.1,0-0.1,0c0,0,0-0.1,0.1-0.1c0,0,0.1,0,0.1,0
	C76.8,74.6,76.8,74.6,76.9,74.6z M76.9,75.7C76.9,75.7,76.9,75.7,76.9,75.7C76.9,75.7,76.9,75.7,76.9,75.7z M76.8,74.9
	c0,0.3,0,0.6,0,0.9C76.8,75.5,76.7,75.2,76.8,74.9z M77,74.4c-0.2-0.3-0.8-0.2-1,0c0-0.1-0.1-0.2-0.2-0.3c0,0.1,0,0.2,0,0.4
	c0,0,0,0,0,0c0,0.1,0,0.1,0,0.2c0,0,0.1,0.1,0,0.1c0,0,0-0.1,0-0.1c-0.1,0.3,0,0.8,0,1.1c0,0,0,0-0.1,0c0,0,0,0,0,0c0,0,0,0,0,0.1
	c0.2,0,0.4,0,0.6,0c0.2,0,0.3,0,0.5,0c0,0,0.1,0,0.1,0c0,0,0,0,0,0c0,0,0,0,0,0c0,0,0.1,0,0.1,0c0,0,0,0,0,0v0c0,0,0-0.1,0-0.1
	c0,0,0,0,0,0c0.1-0.6-0.1-1.2,0.1-1.7C77,74.1,77,74.3,77,74.4z M77,75.8c0,0-0.1,0-0.1,0c0,0,0,0-0.1,0c-0.2,0-0.5,0-0.7,0
	c0,0,0,0,0-0.1c0,0-0.1,0-0.1,0c-0.1-0.3-0.1-0.7,0-0.9c0,0,0,0,0.1,0c0-0.2-0.1-0.5,0.2-0.5c0,0-0.1,0,0,0.1c0,0,0.1,0,0.1-0.1
	c0.2,0,0.5,0,0.6,0.1c0,0,0-0.1,0-0.1c0.3,0,0,0.3,0.1,0.4c0,0,0,0,0.1,0C77.1,75.1,77.1,75.5,77,75.8z M80.3,60.6
	c-0.4-0.3-0.9-0.6-1.5-0.8c-0.6-0.2-1.2-0.3-1.8-0.3c-1,0-1.8,0.2-2.6,0.5c-0.8,0.4-1.5,0.9-2,1.6c-0.4,0.5-0.7,1-0.9,1.6
	c-0.2,0.6-0.3,1.2-0.3,1.8c0,0.8,0.1,1.5,0.4,2.1c0.3,0.6,0.7,1.2,1.3,1.6c0.5,0.4,1,0.6,1.6,0.8c0.6,0.2,1.3,0.3,2,0.3
	c0.7,0,1.4-0.1,2-0.3c0.6-0.2,1.3-0.6,1.8-1l0.1-0.1L80,67.8l-0.1,0.1c-0.5,0.3-1,0.6-1.6,0.8c-0.6,0.2-1.2,0.3-1.8,0.3
	c-1.3,0-2.3-0.3-3-1c-0.7-0.7-1.1-1.6-1.1-2.7c0-0.8,0.2-1.5,0.5-2.2s0.9-1.2,1.5-1.6c0.3-0.2,0.7-0.4,1.2-0.5
	c0.4-0.1,0.9-0.2,1.4-0.2c1.1,0,2,0.3,2.6,0.9c0.7,0.6,1,1.3,1,2.2c0,0.4-0.1,0.8-0.2,1.2c-0.1,0.4-0.3,0.7-0.6,1
	c-0.2,0.2-0.4,0.3-0.5,0.4c-0.2,0.1-0.4,0.2-0.5,0.2c-0.1,0-0.2,0-0.3-0.1c-0.1-0.1-0.1-0.1-0.1-0.2c0,0,0,0,0-0.2c0,0,0,0,0-0.1
	l0.9-3.5h-1.2l-0.2,0.4c-0.1-0.2-0.3-0.3-0.5-0.4c-0.2-0.1-0.6-0.2-0.9-0.2c-0.8,0-1.4,0.3-2,1c-0.5,0.6-0.8,1.4-0.8,2.4
	c0,0.7,0.2,1.2,0.5,1.5c0.3,0.4,0.8,0.5,1.4,0.5c0.4,0,0.8-0.1,1.1-0.3c0.2-0.1,0.4-0.3,0.5-0.4c0.1,0.2,0.2,0.3,0.3,0.4
	c0.2,0.2,0.5,0.3,1,0.3c0.3,0,0.7-0.1,1-0.2c0.3-0.1,0.6-0.3,0.9-0.5c0.5-0.4,0.8-0.9,1.1-1.4c0.3-0.6,0.4-1.2,0.4-1.8
	c0-0.7-0.1-1.3-0.4-1.8C81.2,61.5,80.8,61,80.3,60.6z M77.2,65.4c-0.1,0.4-0.3,0.7-0.5,0.9c-0.2,0.2-0.5,0.3-0.8,0.3
	c-0.3,0-0.5-0.1-0.6-0.2c-0.1-0.2-0.2-0.4-0.2-0.8c0-0.7,0.2-1.2,0.5-1.7c0.3-0.4,0.7-0.7,1.1-0.7c0.2,0,0.4,0.1,0.6,0.2
	c0.1,0.1,0.2,0.4,0.3,0.6L77.2,65.4z M77.6,72.6c0.1,0.2-0.3,0.6-0.3,0.8c-0.3,0.3,0,0.4-0.1,0.7c0-0.1,0-0.1,0-0.2
	c-0.4-0.1-1,0-1.4,0c-0.1,0,0,0.1,0,0.2c0,0,0-0.1-0.1-0.2c0.2-0.1,0-0.5-0.1-0.7c0,0,0,0,0,0c0.1,0,0.1,0,0.1,0
	c0,0.2,0.1,0.3,0.2,0.5c0,0,0.1,0,0.1,0c0.1-0.1,0.1-0.2,0.2-0.3c0.1,0.1,0.5,0.1,0.6,0c0.1,0.2,0.1,0.4,0.3,0.4
	c0-0.2,0.2-0.4,0.2-0.5c0,0,0-0.1,0.1-0.1C77.4,72.8,77.5,72.7,77.6,72.6C77.6,72.5,77.6,72.5,77.6,72.6z M76.5,74.7
	C76.5,74.8,76.4,74.8,76.5,74.7C76.4,74.8,76.4,74.7,76.5,74.7C76.4,74.7,76.5,74.7,76.5,74.7z M79.5,69.8c0.1,0.1-0.2,0.2-0.2,0.3
	c0,0-0.1,0-0.2,0.1c-0.5,0.8-1,1.6-1.5,2.3c0,0,0-0.1,0-0.1C78.2,71.6,78.6,70.5,79.5,69.8z M75.5,72.9c0.1-0.2-0.3-0.4,0-0.4
	c0,0.2,0.1,0.3,0.2,0.4c0,0,0,0,0,0.1C75.6,73,75.5,72.9,75.5,72.9z M75.4,72.3C75.4,72.3,75.3,72.4,75.4,72.3c-0.1,0.1-0.1,0-0.1,0
	c-0.4-1-1.3-1.8-1.7-2.7C74.3,70.4,74.8,71.5,75.4,72.3z M76.2,75c0,0,0,0.1,0,0.1C76.2,75.1,76.2,75.1,76.2,75z M76.3,74.7
	c0.1,0,0.1,0,0.1,0.1c0,0.1-0.1,0.1-0.2,0.1c0-0.1,0-0.2,0-0.2C76.2,74.6,76.2,74.6,76.3,74.7C76.3,74.7,76.3,74.7,76.3,74.7z
	 M76.1,75.7C76.1,75.7,76.1,75.8,76.1,75.7L76.1,75.7z"/>
</svg>
