<?xml version="1.0" standalone="no"?>
<!DOCTYPE svg PUBLIC "-//W3C//DTD SVG 1.1//EN" "http://www.w3.org/Graphics/SVG/1.1/DTD/svg11.dtd" >
<svg xmlns="http://www.w3.org/2000/svg">
<metadata>Generated by IcoMoon</metadata>
<defs>
<font id="icomoon" horiz-adv-x="512">
<font-face units-per-em="512" ascent="480" descent="-32" />
<missing-glyph horiz-adv-x="512" />
<glyph unicode="&#x20;" d="" horiz-adv-x="256" />
<glyph unicode="&#x21;" d="M256 476.16c-139.268 0-252.16-112.892-252.16-252.16s112.892-252.16 252.16-252.16 252.16 112.892 252.16 252.16-112.892 252.16-252.16 252.16zM256 27.876c-108.313 0-196.124 87.812-196.124 196.124s87.812 196.124 196.124 196.124c108.313 0 196.124-87.812 196.124-196.124s-87.811-196.124-196.124-196.124zM284.018 130.606c0-15.47-12.548-28.018-28.018-28.018-15.477 0-28.018 12.548-28.018 28.018s12.54 28.018 28.018 28.018c15.47 0 28.018-12.548 28.018-28.018zM284.018 317.394v-94.56c0-15.47-12.548-28.018-28.018-28.018-15.477 0-28.018 12.548-28.018 28.018v94.56c0 15.477 12.54 28.018 28.018 28.018 15.47-0.004 28.018-12.541 28.018-28.018z" />
<glyph unicode="&#x22;" d="M255.996 476.156c-139.264 0-252.156-112.896-252.156-252.156s112.892-252.156 252.156-252.156c139.268 0 252.164 112.896 252.164 252.156s-112.896 252.156-252.164 252.156zM255.996 80.953c-16.064 0-29.088 13.028-29.088 29.095 0 16.064 13.024 29.095 29.088 29.095 16.075 0 29.095-13.031 29.095-29.095 0.001-16.068-13.020-29.095-29.095-29.095zM285.092 207.029c0-16.068-13.020-29.099-29.095-29.099-16.064 0-29.088 13.031-29.088 29.099l-0.001 135.776c0 16.075 13.024 29.095 29.088 29.095 16.075 0 29.095-13.020 29.095-29.095l0.001-135.776z" />
<glyph unicode="&#x23;" d="M255.712 446.471c6.254 0 11.58-2.030 16.039-6.080 4.462-4.114 8.228-8.636 11.239-13.788l218.617-377.984c1.916-3.012 3.481-6.251 4.693-9.728 1.273-3.534 1.852-7.296 1.852-11.239 0-9.266-3.591-15.986-10.773-20.039-7.186-4.060-14.887-6.084-22.997-6.084h-436.771c-8.11 0-15.755 2.023-22.997 6.084-7.186 4.053-10.773 10.77-10.773 20.039 0 3.772 0.58 7.481 1.678 11.068 1.159 3.591 2.78 6.891 4.868 9.899l218.1 377.984c3.012 5.152 6.716 9.675 11.179 13.788 4.458 4.053 9.788 6.080 16.046 6.080zM275.346 128.156c2.61 0 4.928 0.985 6.951 2.955 1.973 2.027 2.955 4.345 2.955 6.951l4.288 179.808c0 2.663-1.042 4.981-3.012 6.951-1.973 1.97-4.288 2.958-6.955 2.958l-47.15 0.001c-3.012 0-5.447-0.985-7.243-2.958-1.792-1.966-2.663-4.288-2.663-6.951l3.417-179.808c0-2.606 0.985-4.924 2.955-6.951 1.97-1.97 4.292-2.955 6.955-2.955l39.502-0.001zM287.513 90.969c0 3.012-0.814 5.504-2.549 7.531-1.682 1.97-4.057 2.955-7.065 2.955l-43.737-0.001c-2.667 0-4.978-0.932-6.951-2.841-2.030-1.909-3.012-4.462-3.012-7.644v-41.771c0-3.012 0.981-5.44 3.012-7.239 1.97-1.796 4.284-2.663 6.951-2.663h43.737c6.599 0 9.849 3.303 9.614 9.902v41.771z" />
<glyph unicode="&#x24;" d="M256 380.445c-86.4 0-156.445-70.045-156.445-156.445s70.044-156.445 156.445-156.445 156.445 70.045 156.445 156.445-70.045 156.445-156.445 156.445zM256 108.089c-64 0-115.911 51.911-115.911 115.911s51.911 115.911 115.911 115.911c64 0 115.911-51.911 115.911-115.911-0.356-64-52.267-115.911-115.911-115.911zM506.311 192.356c2.489 20.978 2.489 42.311 0 63.289l-68.978 20.978c-3.911 13.511-9.245 26.666-16 38.755l33.778 63.289c-6.4 8.178-13.511 16-20.978 23.822-7.466 7.466-15.644 14.578-23.822 20.978l-63.289-33.778c-12.089 6.756-25.245 12.089-38.755 16l-20.622 68.622c-20.978 2.489-42.311 2.489-63.289 0l-20.978-68.622c-13.511-3.911-26.311-9.244-38.4-16l-63.289 33.778c-8.178-6.4-16.355-13.511-23.822-20.978s-14.578-15.644-20.978-23.822l33.778-62.933c-6.755-12.089-12.089-25.244-16-38.755l-68.978-21.334c-2.489-20.978-2.489-42.311 0-63.289l68.266-20.622c3.911-13.866 9.245-26.666 16-39.111l-33.422-62.933c6.4-8.178 13.511-16.356 20.978-23.822s15.644-14.578 23.822-20.978l62.934 33.422c12.089-6.755 25.244-12.089 39.111-16l20.978-68.267c20.978-2.489 42.311-2.489 63.289 0l20.622 68.267c13.866 3.911 27.022 9.6 39.111 16.356l62.933-33.778c8.178 6.4 16 13.511 23.822 20.978 7.466 7.466 14.578 15.644 20.978 23.822l-33.778 63.289c6.755 12.089 12.089 25.245 16 38.755l68.978 20.622zM122.311 358.044c0.356 0.356 0.711 0.711 1.067 0.711-0.711-0.711-1.067-1.067-1.778-1.778 0 0.356 0.356 0.711 0.711 1.067zM256 53.334c-94.222 0-170.667 76.445-170.667 170.667s76.445 170.667 170.667 170.667c94.222 0 170.667-76.445 170.667-170.667s-76.445-170.667-170.667-170.667z" />
<glyph unicode="&#x25;" d="M258.368 426.283c0-30.133 22.748-50.56 50.83-50.56 28.060 0 50.827 20.427 50.827 50.56 0 30.123-22.766 50.56-50.827 50.56-28.082-0.004-50.83-20.438-50.83-50.56zM148.302 253.749c0-5.977-1.084-20.818 0.132-29.756l44.356 53.39c9.191 10.048 19.797 17.088 25.223 15.186s8.395-8.274 6.631-14.222l-73.415-243.14c-8.448-28.43 7.541-56.334 46.496-62.695 57.067 0 90.976 38.613 124.331 88.644 0 5.977 1.995 21.717 0.789 30.667l-44.366-53.401c-9.191-10.030-20.612-17.092-26.037-15.168-5.024 1.746-7.94 7.335-6.955 12.878l73.909 244.299c6.151 31.026-10.535 59.236-45.863 62.859-37.131 0.002-91.883-39.507-125.231-89.541z" />
<glyph unicode="&#x26;" d="M260.892 341.319c0-17.191 12.985-28.86 29.010-28.86s29.020 11.669 29.020 28.86c0 17.198-12.996 28.857-29.020 28.857s-29.010-11.659-29.010-28.857zM196.366 241.141c0-3.41-0.615-11.876 0.075-16.981l25.326 30.468c5.237 5.739 11.289 9.756 14.396 8.665 3.097-1.088 4.793-4.715 3.776-8.117l-41.899-138.791c-4.821-16.217 4.309-32.146 26.539-35.765 32.569 0 51.929 22.030 70.969 50.578 0 3.41 1.134 12.405 0.434 17.504l-25.305-30.457c-5.248-5.739-11.765-9.756-14.873-8.676-2.862 1.024-4.526 4.206-3.957 7.349l42.183 139.452c3.524 17.71-6.023 33.813-26.176 35.879-21.198 0-52.451-22.542-71.488-51.108zM256.004 476.16c139.257 0 252.153-112.896 252.153-252.167s-112.896-252.149-252.153-252.149c-139.264 0-252.16 112.878-252.16 252.149s112.896 252.167 252.16 252.167z" />
<glyph unicode="&#x27;" d="M252.633 476.139c-139.25-1.863-250.617-116.274-248.772-255.535 1.867-139.193 116.26-250.592 255.509-248.74 139.225 1.86 250.617 116.27 248.764 255.527-1.858 139.205-116.273 250.597-255.501 248.748zM251.89 70.51h-0.007l-1.387 0.021c-21.444 0.636-36.562 16.434-35.95 37.557 0.601 20.764 16.082 35.836 36.814 35.836l1.244-0.014c22.044-0.658 36.992-16.292 36.37-38.027-0.611-20.823-15.861-35.373-37.084-35.373zM342.087 249.536c-5.042-7.161-16.132-16.060-30.112-26.944l-15.388-10.624c-8.444-6.571-13.536-12.747-15.46-18.823-1.508-4.786-2.244-6.048-2.368-15.783l-0.032-2.475h-58.745l0.171 4.971c0.711 20.434 1.22 32.459 9.682 42.393 13.294 15.602 42.596 34.475 43.84 35.275 4.206 3.161 7.748 6.766 10.382 10.606 6.162 8.501 8.9 15.2 8.9 21.774 0 9.127-2.716 17.568-8.068 25.084-5.148 7.257-14.93 10.93-29.063 10.93-14.027 0-23.634-4.448-29.387-13.582-5.902-9.39-8.896-19.25-8.896-29.323v-2.507h-60.576l0.11 2.613c1.564 37.106 14.802 63.819 39.349 79.417 15.424 9.92 34.606 14.951 56.992 14.951 29.308 0 54.044-7.122 73.525-21.17 19.737-14.226 29.739-35.545 29.739-63.342 0.001-15.551-4.902-30.161-14.595-43.441z" />
<glyph unicode="&#x28;" d="M416 448h-320l-96-96v-336c0-8.837 7.163-16 16-16h480c8.836 0 16 7.163 16 16v336l-96 96zM256 64l-160 128h96v96h128v-96h96l-160-128zM77.255 384l32 32h293.489l32-32h-357.489z" />
<glyph unicode="&#x29;" d="M255.986 476.164c-139.257 0-252.146-112.904-252.146-252.164 0-139.268 112.889-252.16 252.146-252.16 139.271 0 252.174 112.892 252.174 252.16 0.004 139.26-112.903 252.164-252.174 252.164zM256 141.771c-45.408 0-82.226 36.818-82.226 82.226 0 45.404 36.814 82.233 82.226 82.233 45.404 0 82.226-36.828 82.226-82.233s-36.822-82.226-82.226-82.226z" />
<glyph unicode="&#x2a;" d="M488.309 38.261l-136.010 131.428 2.763 2.105c28.004 32.754 44.057 74.983 44.057 120.462 0 101.572-82.453 183.908-189.422 183.908-106.97-0.008-192.236-82.336-192.236-183.908 0-101.564 85.266-186.873 192.235-186.873 26.542 0 51.602 5.248 74.29 14.688l3.072 2.364 141.063-144.366c8.299-8.309 21.774-8.309 30.087 0l30.094 30.087c8.317 8.313 8.317 21.789 0.007 30.105zM209.348 171.648c-69.454 0-124.828 53.468-124.828 119.42 0 65.948 55.371 119.413 124.828 119.413 69.461 0 123.388-53.465 123.388-119.413 0-65.959-53.934-119.42-123.388-119.42zM229.447 308.572h61.643v-39.904h-61.643v-61.646h-39.907v61.643h-61.643v39.907h61.643v61.647h39.908l-0.001-61.647z" />
<glyph unicode="&#x2b;" d="M142.311-27.864c-33.66 0-65.16 14.28-87.912 37.032-44.079 44.080-56.367 121.027 5.432 182.828 36.208 36.208 181.248 181.244 253.648 253.652 25.7 25.704 58.42 35.624 89.739 27.236 30.76-8.24 55.972-33.44 64.212-64.201 8.388-31.336-1.532-64.044-27.232-89.744l-242.566-242.571c-13.852-13.852-29.492-22.052-45.22-23.712-15.572-1.639-30.44 3.38-40.84 13.78-18.872 18.86-21.56 54.371 9.808 85.731l170.38 170.384c7 7 18.34 7 25.34 0 7-6.992 7-18.344 0-25.34l-170.38-170.388c-14.728-14.72-16.080-28.776-9.808-35.048 2.747-2.753 6.92-3.992 11.728-3.48 7.38 0.779 15.78 5.552 23.652 13.408l242.568 242.576c16.64 16.644 23.020 36.22 17.952 55.124-4.992 18.619-20.239 33.868-38.86 38.86-18.9 5.068-38.48-1.312-55.132-17.956-72.4-72.407-217.44-217.452-253.648-253.651-47.261-47.261-35.939-101.632-5.431-132.151 30.512-30.508 84.88-41.827 132.151 5.431l253.648 253.652c7 7 18.34 7 25.34 0 7-6.996 7-18.344 0-25.34l-253.648-253.652c-29.901-29.9-63.36-42.46-94.921-42.46z" />
<glyph unicode="&#x2c;" d="M3.84 413.12v-378.236h504.32v378.236h-504.32zM98.4 66.4h-63.040v63.036h63.040v-63.036zM98.4 192.48h-63.040v63.040h63.040v-63.040zM98.4 318.56h-63.040v63.040h63.040v-63.040zM382.080 66.4h-252.16v315.2h252.16v-315.2zM476.64 66.4h-63.036v63.036h63.036v-63.036zM476.64 192.48h-63.036v63.040h63.036v-63.040zM476.64 318.56h-63.036v63.040h63.036v-63.040zM192.96 318.56v-189.124l126.080 94.564-126.080 94.56z" />
<glyph unicode="&#x2d;" d="M455.164 476.16l-401.148-0.981c0 0-32.885 2.919-32.885-30.652v-440.786c0 0 0.942-31.499 30.784-31.9l410.272 0.523c0 0 28.263 2.5 28.679 31.442v438.228c0.003 0-2.098 34.126-35.702 34.126zM71.083 4.921c-9.287 0-16.804 7.545-16.804 16.8 0 9.287 7.516 16.804 16.804 16.804 9.255 0 16.804-7.513 16.804-16.804-0.004-9.255-7.549-16.8-16.804-16.8zM71.083 72.124c-9.287 0-16.804 7.548-16.804 16.804 0 9.291 7.516 16.807 16.804 16.807 9.255 0 16.804-7.513 16.804-16.807-0.004-9.255-7.549-16.804-16.804-16.804zM71.083 139.335c-9.287 0-16.804 7.548-16.804 16.804 0 9.287 7.516 16.804 16.804 16.804 9.255 0 16.804-7.513 16.804-16.804-0.004-9.255-7.549-16.804-16.804-16.804zM71.083 206.546c-9.287 0-16.804 7.541-16.804 16.8 0 9.287 7.516 16.804 16.804 16.804 9.255 0 16.804-7.513 16.804-16.804-0.004-9.259-7.549-16.8-16.804-16.8zM71.083 273.749c-9.287 0-16.804 7.548-16.804 16.804 0 9.287 7.516 16.804 16.804 16.804 9.255 0 16.804-7.516 16.804-16.804-0.004-9.255-7.549-16.804-16.804-16.804zM71.083 340.956c-9.287 0-16.804 7.548-16.804 16.804 0 9.287 7.516 16.8 16.804 16.8 9.255 0 16.804-7.513 16.804-16.8-0.004-9.255-7.549-16.804-16.804-16.804zM71.083 408.167c-9.287 0-16.804 7.545-16.804 16.8 0 9.291 7.516 16.804 16.804 16.804 9.255 0 16.804-7.513 16.804-16.804-0.004-9.255-7.549-16.8-16.804-16.8zM390.315 4.921h-268.829v203.723h268.828l0.001-203.723zM390.315 240.146h-268.829v201.625h268.828l0.001-201.625zM440.722 4.921c-9.28 0-16.8 7.545-16.8 16.8 0 9.287 7.516 16.804 16.8 16.804 9.255 0 16.807-7.513 16.807-16.804 0-9.255-7.552-16.8-16.807-16.8zM440.722 72.124c-9.28 0-16.8 7.548-16.8 16.804 0 9.291 7.516 16.807 16.8 16.807 9.255 0 16.807-7.513 16.807-16.807 0-9.255-7.552-16.804-16.807-16.804zM440.722 139.335c-9.28 0-16.8 7.548-16.8 16.804 0 9.287 7.516 16.804 16.8 16.804 9.255 0 16.807-7.513 16.807-16.804 0-9.255-7.552-16.804-16.807-16.804zM440.722 206.546c-9.28 0-16.8 7.541-16.8 16.8 0 9.287 7.516 16.804 16.8 16.804 9.255 0 16.807-7.513 16.807-16.804 0-9.259-7.552-16.8-16.807-16.8zM440.722 273.749c-9.28 0-16.8 7.548-16.8 16.804 0 9.287 7.516 16.804 16.8 16.804 9.255 0 16.807-7.516 16.807-16.804 0-9.255-7.552-16.804-16.807-16.804zM440.722 340.956c-9.28 0-16.8 7.548-16.8 16.804 0 9.287 7.516 16.8 16.8 16.8 9.255 0 16.807-7.513 16.807-16.8 0-9.255-7.552-16.804-16.807-16.804zM440.722 408.167c-9.28 0-16.8 7.545-16.8 16.8 0 9.291 7.516 16.804 16.8 16.804 9.255 0 16.807-7.513 16.807-16.804 0-9.255-7.552-16.8-16.807-16.8z" />
<glyph unicode="&#x2e;" d="M508.16 9.668c0 0-0.996 92.231-6.83 101.796-8.672 14.24-28.885 24.025-66.414 39.168-37.404 15.104-49.362 27.84-49.362 55.129 0 16.373 11.417 11.022 16.441 41.006 2.076 12.448 12.164 0.206 14.094 28.608 0 11.324-5.504 14.137-5.504 14.137s2.798 16.743 3.89 29.636c1.358 16.068-8.377 57.557-60.288 57.557-51.925 0-61.653-41.486-60.295-57.557 1.095-12.892 3.883-29.636 3.883-29.636s-5.497-2.812-5.497-14.137c1.927-28.398 12.007-16.16 14.094-28.608 5.013-29.988 16.437-24.633 16.437-41.006 0-18.553-5.554-30.379-20.857-40.804 81.71-39.506 92.665-47.563 92.665-82.884v-72.405h113.543zM261.636 136.917c-49.881 20.142-65.817 37.124-65.817 73.493 0 21.838 15.225 14.706 21.913 54.688 2.77 16.587 16.224 0.27 18.791 38.144 0 15.086-7.335 18.841-7.335 18.841s3.733 22.329 5.188 39.516c1.813 21.415-11.172 76.736-80.391 76.736-69.216 0-82.208-55.321-80.384-76.736 1.458-17.188 5.18-39.516 5.18-39.516s-7.339-3.755-7.339-18.841c2.581-37.867 16.028-21.554 18.805-38.144 6.688-39.982 21.913-32.85 21.913-54.688 0-36.37-15.943-53.351-65.817-73.493-15.2-6.137-42.503-15.644-42.503-38.51v-88.74h350.343c0 0 0 52.494 0 66.539 0 20.857-42.524 40.505-92.547 60.711z" />
<glyph unicode="&#x2f;" d="M315.932 111.847c-62.82 22.649-82.891 41.76-82.891 82.684 0 24.562 19.172 16.533 27.595 61.522 3.495 18.656 20.437 0.302 23.676 42.901 0 16.974-9.248 21.198-9.248 21.198s4.704 25.12 6.539 44.459c2.286 24.092-14.066 86.332-101.259 86.332-87.189 0-103.545-62.24-101.255-86.332 1.838-19.335 6.539-44.459 6.539-44.459s-9.252-4.224-9.252-21.198c3.246-42.603 20.185-24.245 23.676-42.901 8.434-44.985 27.605-36.96 27.605-61.522 0-40.924-20.075-60.036-82.898-82.688-7.559-2.727-25.593-6.965-40.924-13.579v-101.209h403.456c0 0 0 37.301 0 53.092 0.005 15.798-28.336 38.962-91.359 61.7zM432.516 249.216v75.648h-50.436v-75.648h-75.648v-50.432h75.648v-75.644h50.436v75.644h75.644v50.432h-75.644z" />
<glyph unicode="&#x30;" d="M398.72 104.686c-66.133 24.1-87.268 44.427-87.268 87.957 0 26.133 20.192 17.593 29.056 65.451 3.68 19.847 21.515 0.32 24.932 45.643 0 18.059-9.735 22.549-9.735 22.549s4.949 26.727 6.891 47.296c2.389 25.632-14.816 91.847-106.596 91.847-91.783 0-108.999-66.215-106.592-91.847 1.938-20.569 6.884-47.296 6.884-47.296s-9.732-4.491-9.732-22.549c3.403-45.323 21.241-25.796 24.921-45.643 8.871-47.854 29.052-39.317 29.052-65.447 0-43.531-21.127-63.861-87.257-87.961-66.339-24.185-109.436-48.832-109.436-65.642 0-16.796 0-56.476 0-56.476l504.32-0.001c0 0 0 39.68 0 56.476 0 16.811-43.1 41.458-109.44 65.643z" />
<glyph unicode="&#x31;" d="M484.519 452.519c-31.52 31.52-63.040 31.52-94.564 0l-7.879-7.879 94.56-94.56 7.883 7.879c31.524 31.52 31.524 63.040 0 94.56zM35.356 97.92l-31.516-126.080 126.080 31.52 315.2 315.2-94.56 94.56-315.204-315.2zM129.92 66.4l-31.52 31.52 252.16 252.16 31.52-31.52-252.16-252.16z" />
<glyph unicode="&#x32;" d="M288.356 104.668c0 39.772 30.137 61.756 79.317 94.332 60.142 39.854 135.008 89.451 135.008 207.161 0 10.592-8.686 19.186-19.406 19.186h-94.012c-13.302 24.548-52.89 50.813-133.263 50.813-80.38 0-119.964-26.265-133.259-50.812h-94.019c-10.716 0-19.399-8.594-19.399-19.186 0-117.71 74.862-167.303 135.008-207.161 49.177-32.576 79.321-54.564 79.321-94.332v-35.925c-51.641-5.739-89.596-24.857-89.596-47.57 0-27.25 54.592-49.333 121.952-49.333 67.349 0 121.952 22.084 121.952 49.333 0 22.713-37.956 41.831-89.6 47.57l-0.001 35.924h-0.003zM364.455 243.189c15.556 32.9 27.851 77.49 29.842 143.783h68.757c-6.535-73.984-51.008-111.36-98.599-143.783zM256.004 442.556c74.887 0.050 104.135-30.578 104.096-41.931 0-11.42-29.205-41.998-104.096-42.066-74.894 0.064-104.103 30.642-104.103 42.066-0.033 11.354 29.212 41.981 104.103 41.931zM48.949 386.972h68.757c1.995-66.293 14.286-110.887 29.845-143.783-47.59 32.423-92.070 69.799-98.602 143.783z" />
<glyph unicode="&#x33;" d="M201.6 461.866l-44.8-45.155c11.378-11.378 11.378-29.511 0-40.889s-29.511-11.378-40.889 0l-51.911-51.911 306.844-306.844 52.267 52.267c-11.378 11.378-11.378 29.511 0 40.889 11.022 11.022 29.156 11.022 40.534 0l44.8 44.8-306.844 306.844zM353.067 79.289l-227.555 227.555 93.511 93.511 227.555-227.556-93.511-93.511zM430.933 53.689c-2.489 0.711-3.911 1.067-6.755 3.555l-54.044-54.044-54.044 54.4-248.178 108.089 42.666 97.778-42.666 42.666-11.378-26.311c14.578-6.4 21.334-23.466 14.933-38.044s-23.466-21.334-38.044-14.934l-29.511-67.556 397.866-173.155 29.156 67.555zM297.245 76.445l-47.289 47.289-0.356-2.844-4.267 7.822-16.356 16.356-23.111-4.978 13.511 14.933-36.267 35.911-15.289-3.2-2.845-29.866-15.289 25.955-29.156-6.4 19.911 22.4-15.289 25.956 27.378-12.089 3.555 4.267-35.555 35.555-36.267-84.267 212.978-92.8zM221.867 383.644l-79.644-79.644 208-208 79.644 79.289-208 208.356zM212.978 263.466l-4.622 29.511-29.511 4.622 26.667 13.511-4.622 29.511 21.334-21.334 26.666 13.511-13.511-26.667 21.333-21.334-29.511 4.622-14.222-25.956zM278.4 198.4l-4.622 29.155-29.511 4.622 26.667 13.511-4.622 29.511 21.334-21.334 26.666 13.511-13.511-26.667 21.334-21.334-29.511 4.622-14.222-25.6zM343.822 132.622l-4.622 29.511-29.511 4.622 26.666 13.511-4.622 29.866 21.334-21.334 26.666 13.511-13.511-26.666 21.334-21.334-29.511 4.622-14.222-26.311z" />
<glyph unicode="&#x34;" d="M476.64 413.12h-441.28c-17.333 0-31.52-14.183-31.52-31.52v-220.64c0-17.333 14.183-31.52 31.52-31.52h63.040v-94.556l70.919 94.556h307.321c17.337 0 31.52 14.187 31.52 31.52v220.64c0 17.337-14.183 31.52-31.52 31.52z" />
<glyph unicode="&#x35;" d="M445.116 444.64h-378.236c-34.67 0-63.036-28.366-63.036-63.040v-220.64c0-34.67 28.37-63.036 63.036-63.036h126.080l126.080-94.56v94.556h126.080c34.674 0 63.040 28.37 63.040 63.036v220.644c0 34.674-28.37 63.040-63.044 63.040z" />
<glyph unicode="&#x36;" d="M457.728 407.417h-403.456c-27.854 0-50.432-22.581-50.432-50.436v-167.054c0-27.854 22.578-50.432 50.432-50.432 0 0 16.811 0 50.432 0 52.292 0 41.5-135.534 67.243-89.305 25.742 46.226 67.243 89.305 100.864 89.305s184.921 0 184.921 0c27.854 0 50.432 22.578 50.432 50.432v167.058c-0.004 27.851-22.582 50.432-50.436 50.432zM70.492 338.404h366.418v-13.792h-366.418v13.792zM436.914 206.418h-366.422v13.788h366.421l0.001-13.788zM436.914 265.508h-366.422v13.796h366.421l0.001-13.796z" />
<glyph unicode="&#x37;" d="M508.16 303.858v-129.618c0-21.611-17.522-39.132-39.125-39.132 0 0-13.049 0-39.14 0-40.569 0-32.196-105.159-52.167-69.287-19.972 35.865-52.181 69.287-78.265 69.287h-115.438c15.851 15.851 32.946 26.475 48.096 26.475 27.719 0 149.159 0 149.159 0 22.965 0 41.582 18.617 41.582 41.579v137.748c0 0.7-0.071 1.387-0.103 2.080h46.279c21.6 0 39.122-17.518 39.122-39.132zM407.534 349.269v-133.721c0-22.297-18.076-40.37-40.37-40.37 0 0-121.109 0-148.021 0s-60.135-34.485-80.74-71.484c-20.604-37.006-11.967 71.488-53.823 71.488-26.912 0-40.37 0-40.37 0-22.297 0-40.37 18.073-40.37 40.37v133.717c0 22.297 18.073 40.37 40.37 40.37h322.958c22.29 0 40.366-18.073 40.366-40.37zM57.195 323.356h293.305v11.040h-293.305v-11.040zM350.5 239.78h-293.305v-11.040h293.305v11.040zM350.507 287.090h-293.316v-11.047h293.316v11.047z" />
<glyph unicode="&#x38;" d="M439.093 37.778c-24.206 17.109-62.201 50.176-94.482 47.129-8.075-0.757-16.338-0.996-24.715-0.996-54.322 0-103.264 14.343-137.628 37.269 9.529 3.204 18.99 4.828 28.064 3.975 9.362-0.882 18.926-1.163 28.633-1.163 120.444 0 218.080 60.832 218.080 135.879 0 8.135-0.281 20.53-0.281 27.794 33.668-21.191 51.396-54.29 51.396-86.464 0-34.741-24-66.407-62.763-87.435-36.426-19.757 17.903-93.101-6.304-75.988zM221.924 412.789c-120.444 0-218.084-60.836-218.084-135.876 0-40.249 27.794-76.932 72.704-101.287 33.458-14.155-20.74-107.854 7.3-88.036 28.039 19.826 72.060 58.13 109.447 54.603 9.362-0.882 18.926-1.163 28.633-1.163 120.444 0 218.087 60.836 218.087 135.883 0 75.041-97.643 135.876-218.087 135.876z" />
<glyph unicode="&#x39;" d="M508.16 256.612c0-86.77-112.896-157.106-252.16-157.106-11.221 0-22.283 0.324-33.106 1.344-43.232 4.075-94.13-40.21-126.549-63.136-32.42-22.916 40.341 75.324-8.441 101.788-51.925 28.171-84.064 70.578-84.064 117.11 0 86.77 112.896 157.109 252.16 157.109s252.16-70.34 252.16-157.109z" />
<glyph unicode="&#x3a;" d="M256 476.16l68.42-192.629h183.74l-149.913-113.12 53.589-198.571-155.836 119.058-155.829-119.058 53.575 198.571-149.906 113.12h183.733l68.427 192.629z" />
<glyph unicode="&#x3b;" d="M256 401.803l50.845-143.161h127.005l-104.012-78.489 38.872-144.043-112.71 86.109-112.711-86.116 38.866 144.046-104.011 78.492h127.001l50.855 143.162zM256 476.16l-68.427-192.629h-183.733l149.906-113.12-53.575-198.571 155.829 119.054 155.836-119.054-53.589 198.571 149.913 113.12h-183.74l-68.42 192.629z" />
<glyph unicode="&#x3c;" d="M472.665 159.552c9.042 1.131 16.043 8.441 16.786 17.529l18.649 173.227c0.434 5.337-1.408 10.663-5.038 14.592-3.63 3.94-8.804 6.197-14.151 6.183l-385.139-0.729-17.319 83.669c-2.162 5.348-6.556 9.408-12.057 11.132l-45.564 6.418c-10.133 3.179-20.924-2.45-24.103-12.576-3.186-10.13 2.443-20.928 12.572-24.11v0.007l28.444-7.822c0 0 14.357-61.319 23.029-91.719s75.484-196.889 75.484-196.889l-23.122-33.326c-2.247-3.232-3.428-7.026-3.428-10.958v-23.922c-0.007-5.134 2.005-9.988 5.646-13.611 3.623-3.616 8.444-5.614 13.564-5.614h0.053l341.692 0.853c10.613 0.028 19.204 8.7 19.179 19.317-0.032 10.617-8.654 17.191-19.271 17.163l-321.415-0.796 21.785 34.588 293.724 37.394zM180.516 176.462l26.528 26.535 26.528-26.532-14.372-14.368-21.6-2.716-17.084 17.081zM207.040 278.066l26.528-26.532-26.528-26.528-26.524 26.528 26.524 26.532zM169.508 262.535l-26.532 26.532 26.528 26.532 26.528-26.532-26.524-26.532zM459.186 251.534l-26.635-26.631-26.731 26.731 26.631 26.635 26.735-26.735zM443.452 289.273l24.398 24.402-5.554-50.578 0.548 6.784-19.392 19.392zM330.745 251.634l26.539 26.535 26.528-26.528-26.535-26.535-26.532 26.528zM346.279 214.101l-26.635-26.631-26.532 26.528 26.631 26.635 26.536-26.532zM319.744 262.642l-26.528 26.528 26.535 26.535 26.528-26.532-26.535-26.531zM308.74 251.634l-26.631-26.631-26.524 26.528 26.631 26.638 26.524-26.535zM271.104 213.998l-26.532-26.528-26.524 26.528 26.528 26.528 26.528-26.528zM244.576 165.458l0.16-0.156-0.363-0.046 0.203 0.202zM255.58 176.462l26.524 26.535 26.532-26.535-3.588-3.584-40.768-5.12-8.7 8.704zM330.645 176.462l26.631 26.635 21.020-21.020-47.328-5.941-0.323 0.326zM368.284 214.101l26.532 26.528 26.734-26.731-28.597-26.532-24.669 26.735zM394.812 262.642l-26.528 26.528 26.635 26.631 26.528-26.528-26.635-26.631zM383.915 326.809l-26.635-26.635-26.528 26.528 7.712 7.712 37.771 0.071 7.68-7.676zM308.743 326.709l-26.532-26.535-26.532 26.528 7.573 7.577 37.849 0.068 7.642-7.638zM271.207 289.173l-26.631-26.631-26.528 26.524 26.635 26.635 26.524-26.528zM408.548 185.877l5.671 0.747 16.27 16.274 12.665-12.665 11.3 1.408 0.69 8.601-11.591 13.653 14.99 14.994-4.089-37.248-45.906-5.764zM461.042 326.805l-28.594-26.524-26.528 26.524 7.748 7.751 39.556 0.071 7.818-7.822zM106.716 333.998l1.76-4.356 4.37 4.366 113.323 0.206 7.509-7.509-26.635-26.631-26.528 26.532 7.541 7.541-37.028-0.071 7.474-7.477-26.528-26.528-19.378 19.378 17.49-43.275 1.888 1.888 26.528-26.532-13.145-13.145-38.641 95.613zM151.691 222.713l17.817 17.817 26.528-26.532-26.528-26.524-5.998 5.998-11.819 29.241zM434.681 40.388c-17.906 0-32.423-14.517-32.423-32.427s14.517-32.423 32.423-32.423 32.423 14.514 32.423 32.423-14.517 32.427-32.423 32.427zM434.681-5.003c-7.168 0-12.967 5.803-12.967 12.964s5.803 12.967 12.967 12.967c7.164 0 12.967-5.806 12.967-12.967s-5.803-12.964-12.967-12.964zM157.796 40.388c-17.909 0-32.423-14.517-32.423-32.427s14.514-32.423 32.423-32.423 32.427 14.514 32.427 32.423-14.518 32.427-32.427 32.427zM157.796-5.003c-7.164 0-12.967 5.803-12.967 12.964s5.806 12.967 12.967 12.967c7.164 0 12.971-5.806 12.971-12.967s-5.807-12.964-12.971-12.964z" />
<glyph unicode="&#x3d;" d="M130.436 51.008c0 0 56.146-15.925 125.092-15.925 0 0 68.288-1.803 126.404 15.925l-0.494 236.38 64.181-29.383c0 0 8.096-7.125 14.77 0.494 3.751 4.498 32.786 44.263 45.262 64.967 5.895 9.938-0.444 10.706-0.444 10.706l-106.869 63.033c0 0-12.807 15.762-48.263 15.762h-30.528c0 0 0.978-63.527-64.021-63.527 0 0-64.021 3.943-63.036 63.527h-30.535c0 0-36.441-2.958-49.248-15.765l-107.036-62.535c0 0-4.434-5.419 0.494-14.773l45.476-62.379c0 0 7.388-6.404 15.758 0.988l63.2 28.889-0.163-236.384z" />
<glyph unicode="&#x3e;" d="M459.648 224c0 31.449 19.356 56.263 48.512 73.326-5.252 17.554-12.21 34.361-20.772 50.187-32.679-8.551-59.136 4.26-81.38 26.492-22.236 22.244-29.045 48.7-20.491 81.39-15.822 8.558-32.636 15.513-50.194 20.764-17.055-29.155-47.871-48.507-79.323-48.507-31.445 0-62.261 19.349-79.332 48.508-17.554-5.241-34.361-12.206-50.187-20.764 8.551-32.683 1.749-59.143-20.494-81.39-22.236-22.236-48.7-35.040-81.387-26.492-8.558-15.826-15.52-32.636-20.764-50.187 29.156-17.064 48.509-41.882 48.509-73.327 0-31.438-19.349-62.272-48.505-79.332 5.244-17.557 12.206-34.361 20.764-50.187 32.686 8.551 59.147 1.749 81.387-20.498 22.233-22.233 29.045-48.7 20.494-81.38 15.826-8.562 32.636-15.527 50.19-20.768 17.070 29.148 47.883 48.512 79.328 48.508 31.452 0 62.265-19.356 79.328-48.508 17.561 5.248 34.372 12.206 50.201 20.772-8.551 32.672-1.753 59.143 20.484 81.376 22.24 22.247 48.7 35.051 81.38 26.5 8.558 15.826 15.52 32.633 20.772 50.187-29.16 17.067-48.52 41.892-48.52 73.33zM256 114.336c-60.562 0-109.657 49.095-109.657 109.664s49.095 109.664 109.657 109.664c60.565 0 109.653-49.095 109.653-109.664s-49.091-109.664-109.653-109.664z" />
<glyph unicode="&#x3f;" d="M463.733 175.612c-26.457 45.831-10.549 104.562 35.534 131.246l-49.557 85.838c-14.158-8.302-30.624-13.060-48.192-13.060-52.964 0-95.897 43.214-95.897 96.523l-99.114 0.001c0.128-16.455-3.979-33.134-12.786-48.388-26.457-45.831-85.28-61.415-131.431-34.848l-49.558-85.838c14.272-8.114 26.62-19.989 35.406-35.204 26.418-45.756 10.592-104.373-35.317-131.115l49.557-85.838c14.112 8.22 30.496 12.932 47.968 12.932 52.796 0 95.62-42.944 95.893-96.018h99.118c-0.043 16.288 4.075 32.786 12.789 47.879 26.418 45.76 85.095 61.365 131.207 34.976l49.557 85.838c-14.17 8.104-26.437 19.94-35.177 35.076zM256 121.884c-56.395 0-102.116 45.717-102.116 102.116 0 56.395 45.717 102.112 102.116 102.112s102.112-45.717 102.112-102.112c0-56.395-45.717-102.116-102.112-102.116z" />
<glyph unicode="&#x40;" d="M306.894 424.167c-69.33 69.33-181.732 69.33-251.061 0-69.323-69.326-69.326-181.732 0-251.061 63.94-63.936 164.484-68.857 234.119-14.866l50.66-50.66c-3.168-13.796 0.569-28.857 11.321-39.598l83.701-83.701c16.59-16.594 43.492-16.601 60.089 0 16.583 16.587 16.583 43.484-0.007 60.078l-83.702 83.712c-10.741 10.741-25.799 14.482-39.591 11.317l-50.667 50.663c54.002 69.636 49.078 170.177-14.862 234.116zM99.001 216.274c-45.493 45.49-45.493 119.243-0.004 164.736 45.49 45.486 119.25 45.486 164.74 0 45.493-45.493 45.493-119.246 0-164.747-45.49-45.486-119.25-45.483-164.736 0.011zM123.733 351.726c29.6 29.604 71.509 39.339 109.244 29.298-37.905 22.183-87.405 17.024-119.91-15.477-29.056-29.056-36.263-71.684-21.628-107.474-4.019 33.319 6.723 68.082 32.294 93.653z" />
<glyph unicode="&#x41;" d="M508.16 47.012l-165.426 144.981c12.988 24.892 21.035 52.743 21.035 82.756-0.039 99.353-80.594 179.947-179.982 179.947-99.353-0.001-179.947-80.591-179.947-179.948 0-99.428 80.594-179.947 179.943-179.947 42.713 0 81.422 15.449 112.267 40.338l165.319-141.838 46.791 53.711zM77.074 274.748c0 58.805 47.836 106.713 106.713 106.713s106.78-47.833 106.78-106.713c0-58.873-47.908-106.713-106.78-106.713-58.841 0.004-106.713 47.844-106.713 106.713z" />
<glyph unicode="&#x42;" d="M501.71 215.58l-224.807 225.024c-11.502 11.922-30.308 11.922-41.799 0l-224.811-225.024c-11.499-11.922-7.211-21.675 9.532-21.675h46.862v-172.814c0-12.508 0.533-22.635 23.1-22.635h109.116l-0.005 173.316h114.197v-173.312h114.556c17.205 0 17.668 10.126 17.668 22.635l0.004 172.814h46.862c16.732-0.003 21.024 9.75 9.525 21.671z" />
<glyph unicode="&#x43;" d="M448 390.738v-35.364c-98.212 0-147.321-146.532-73.66-146.532 40.679 0 73.66-33.927 73.66-75.787s-32.978-75.794-73.66-75.794c-170.312-0.002-101.618 333.48 73.66 333.477zM235.79 390.738v-35.367c-98.215 0-147.324-146.532-73.66-146.532 40.679 0 73.66-33.931 73.66-75.787s-32.981-75.793-73.657-75.793c-170.318 0-101.625 333.482 73.657 333.479z" />
<glyph unicode="&#x44;" d="M137.66 390.741c-40.682 0-73.66-33.934-73.66-75.793s32.978-75.787 73.66-75.787c73.657 0 24.551-146.532-73.66-146.532v-35.367c175.278-0.003 243.972 333.479 73.66 333.479zM349.87 390.741c-40.679 0-73.66-33.934-73.66-75.79s32.978-75.787 73.66-75.787c73.66 0 24.555-146.532-73.66-146.532v-35.367c175.282-0.006 243.975 333.476 73.66 333.476z" />
<glyph unicode="&#x45;" d="M37.291 314.055h437.419c14.684 0 12.27 15.644 4.964 18.194-7.31 2.553-88.59 33.266-102.741 33.266h-23.161v77.191h-195.55v-77.191h-23.157c-14.151 0-95.435-30.716-102.741-33.266-7.311-2.546-9.721-18.194 4.967-18.194zM479.858 285.753h-447.712c-14.151 0-28.302-16.725-28.302-30.88v-90.055c0-14.151 14.151-30.876 28.302-30.876h51.008l-22.702-128.654h391.104l-22.709 128.654h51.015c14.151 0 28.302 16.722 28.302 30.876v90.058c-0.004 14.152-14.159 30.877-28.306 30.877zM111.908 56.754l36.021 167.246h216.135l36.025-167.246h-288.181z" />
<glyph unicode="&#x46;" d="M469.113 328.661h-68.871v103.026c0 21.564-17.483 39.047-39.044 39.047h-210.403c-21.561 0-39.044-17.483-39.044-39.047v-103.026h-68.867c-21.564 0-39.040-17.483-39.040-39.047v-174.617c0-21.557 17.476-39.044 39.040-39.044h75.122c-0.288 1.863-0.484 3.758-0.484 5.703v96.698h276.96v-96.697c0-1.948-0.196-3.84-0.48-5.703h75.111c21.557 0 39.047 17.486 39.047 39.044v174.616c0 21.565-17.49 39.047-39.047 39.047zM371.396 285.084h-230.795v126.13c0 17.252 13.984 31.236 31.236 31.236h168.316c17.252 0 31.243-13.984 31.243-31.236v-126.13zM140.601 154.155v-145.653c0-17.244 13.984-31.239 31.236-31.239h168.316c17.252 0 31.243 13.998 31.243 31.239v145.653h-230.795zM160.999 126.596h184.228v-9.874h-184.228v9.874zM160.996 52.839h184.228v-9.874h-184.228v9.874zM345.23 6.084h-184.234v9.877h184.231v-9.877zM345.234 79.84h-184.235v9.877h184.231v-9.877z" />
<glyph unicode="&#x47;" d="M6.222 473.778v-499.556h499.556v499.556h-499.556zM400.27 198.517c0-2.933-1.088-5.419-3.321-7.332-2.162-2.044-4.519-2.997-7.008-2.997h-98.137v-107.513c0.192-6.692-3.118-10.009-10.012-10.009l-51.264 0.001c-6.891-0.256-10.329 3.122-10.329 10.009v107.516h-97.82c-6.884 0-10.329 3.438-10.329 10.325v49.351c0 6.891 3.445 10.332 10.329 10.332h97.82v108.147c0 6.692 3.442 10.009 10.329 10.009h51.264c6.631 0.192 10.012-3.122 10.012-10.009v-108.146h98.14c2.485 0 4.843-1.024 7.008-3.001 2.233-1.973 3.321-4.398 3.321-7.332l0.001-49.351z" />
<glyph unicode="&#x48;" d="M421.476 473.778h-330.955c-46.365 0-84.299-37.934-84.299-84.299v-330.955c0-46.368 37.934-84.302 84.299-84.302h330.955c46.368 0 84.302 37.934 84.302 84.302v330.955c0 46.365-37.934 84.299-84.302 84.299zM400.27 198.514c0-2.933-1.084-5.412-3.317-7.332-2.165-2.044-4.526-3.001-7.015-3.001h-98.134v-107.506c0.192-6.695-3.125-10.012-10.012-10.012h-51.264c-6.891-0.252-10.329 3.125-10.329 10.012v107.51h-97.817c-6.891 0-10.329 3.445-10.329 10.329v49.354c0 6.891 3.442 10.332 10.329 10.332h97.817v108.147c0 6.695 3.442 10.009 10.329 10.009h51.264c6.631 0.188 10.012-3.122 10.012-10.009v-108.146h98.137c2.485 0 4.843-1.020 7.015-2.997 2.233-1.977 3.317-4.398 3.317-7.332l0.001-49.358z" />
<glyph unicode="&#x49;" d="M256.16 473.774c34.567 0 67.019-6.507 97.177-19.577 30.229-13.010 56.69-30.798 79.456-53.436 22.702-22.638 40.494-49.099 53.436-79.388 12.875-30.354 19.381-62.809 19.381-97.369 0-34.624-6.507-67.079-19.381-97.372-12.946-30.35-30.738-56.814-53.436-79.385-22.763-22.638-49.227-40.427-79.456-53.5-30.158-13.010-62.61-19.513-97.177-19.513-34.624 0-67.083 6.503-97.369 19.513-30.354 13.074-56.814 30.862-79.388 53.5-22.638 22.574-40.43 49.035-53.436 79.385-13.075 30.289-19.581 62.744-19.581 97.368 0 34.564 6.507 67.019 19.577 97.369 13.010 30.29 30.798 56.75 53.436 79.388 22.574 22.635 49.035 40.43 79.388 53.436 30.29 13.075 62.749 19.581 97.373 19.581zM400.27 248.359c0 2.933-1.088 5.358-3.321 7.332-2.162 1.977-4.519 3.001-7.008 3.001h-98.137v108.142c0 6.887-3.381 10.201-10.012 10.009h-51.264c-6.891 0-10.329-3.317-10.329-10.009v-108.146h-97.82c-6.884 0-10.329-3.442-10.329-10.332v-49.352c0-6.891 3.445-10.325 10.329-10.325h97.82v-107.509c0-6.891 3.442-10.272 10.329-10.012h51.264c6.894 0 10.204 3.324 10.012 10.012v107.506h98.14c2.485 0 4.843 0.953 7.008 2.997 2.233 1.909 3.321 4.395 3.321 7.332l0.001 49.354h-0.004z" />
<glyph unicode="&#x4a;" d="M401.742 476.16h-290.009c0 0-35.972 0-35.972-34.46v-432.38c0 0 1.476-37.479 37.447-37.479h285.159c37.099 0 37.867 38.603 37.867 38.603l0.001 431.256c0 0-1.547 34.46-34.493 34.46zM129.436 402.18h107.911c9.628 0 17.422-7.797 17.422-17.422s-7.797-17.422-17.422-17.422h-107.911c-9.625 0-17.422 7.797-17.422 17.422-0.003 9.624 7.798 17.422 17.422 17.422zM255.893 312.818c0-9.625-7.797-17.422-17.422-17.422h-107.911c-9.625 0-17.422 7.797-17.422 17.422s7.797 17.422 17.422 17.422h107.911c9.625 0 17.422-7.797 17.422-17.422zM112.011 205.468c0 9.941 8.078 16.86 17.988 16.86h250.667c9.938 0 17.988-6.919 17.988-16.86s-8.050-17.988-17.988-17.988h-250.667c-9.907 0.001-17.988 8.047-17.988 17.988zM398.652 133.529c0-10.574-8.569-17.988-19.111-17.988h-246.169c-10.539 0-19.111 7.413-19.111 17.988 0 10.542 8.572 17.988 19.111 17.988h246.169c10.543-0.004 19.111-7.449 19.111-17.988zM381.792 43.605h-249.547c-9.906 0-17.988 8.043-17.988 17.984 0 9.906 8.078 16.86 17.988 16.86h249.547c9.938 0 17.988-6.955 17.988-16.86 0-9.945-8.050-17.984-17.988-17.984z" />
<glyph unicode="&#x4b;" d="M396.085 476.16h-280.174c-30.82 0-56.036-25.216-56.036-56.036v-392.249c0-30.82 25.216-56.036 56.036-56.036h280.178c30.82 0 56.039 25.216 56.039 56.036v392.249c-0.004 30.82-25.223 56.036-56.043 56.036zM334.34 209.412c-6.66-10.368-10.194-5.938-8.188 0 5.284 15.63 5.067 62.944-39.012 69.888v-146.055c0-27.225-15.673-44.327-49.013-55.022-32.395-10.389-68.651 0.402-77.124 23.676-8.47 23.271 10.581 51.566 42.553 63.21 17.835 6.478 35.922 6.4 49.906 1.024l-0.001 206.013h33.685c-0.003-35.374 94.721-88.793 47.194-162.734z" />
<glyph unicode="&#x4c;" d="M157.259 445.084l-12.892-335.189c-17.202 8.825-38.788 12.647-61.433 9.433-48.828-6.916-83.993-43.755-78.532-82.268s49.472-64.124 98.297-57.205c43.335 6.14 75.865 35.851 78.82 69.376l0.011-0.021c0.007 0.075 0.011 0.192 0.018 0.277 0.075 0.85 0.114 1.714 0.146 2.571 1.817 34.617 12.953 297.554 12.953 297.554l274.18 28.249-12.38-236.807c-17.596 9.792-40.213 14.155-63.989 10.784-48.835-6.917-83.996-43.749-78.538-82.266 5.458-38.51 49.468-64.124 98.297-57.198 44.26 6.265 77.234 37.113 78.962 71.513l0.021 0.021c0.946 15.737 16.96 385.362 16.96 385.362l-350.901-24.186z" />
<glyph unicode="&#x4d;" d="M6.222 473.778v-499.556h499.556v499.556h-499.556zM400.722 198.027c0-2.933-1.017-5.355-3.253-7.332s-4.523-3.001-7.072-3.001h-267.556c-6.891 0-10.329 3.445-10.329 10.332v49.419c0 6.827 3.442 10.265 10.329 10.265h267.556c2.549 0 4.836-0.956 7.072-2.93 2.236-1.977 3.253-4.469 3.253-7.335v-49.418z" />
<glyph unicode="&#x4e;" d="M421.479 473.778h-330.958c-46.368 0-84.299-37.931-84.299-84.299v-330.958c0-46.361 37.931-84.299 84.299-84.299h330.958c46.361 0 84.299 37.938 84.299 84.299v330.958c0 46.368-37.938 84.299-84.299 84.299zM400.722 198.027c0-2.933-1.017-5.355-3.253-7.332s-4.523-3.001-7.072-3.001h-267.556c-6.891 0-10.329 3.445-10.329 10.332v49.419c0 6.827 3.442 10.265 10.329 10.265h267.556c2.549 0 4.836-0.956 7.072-2.93 2.236-1.977 3.253-4.469 3.253-7.335v-49.418z" />
<glyph unicode="&#x4f;" d="M256.124 473.764c34.62 0 67.026-6.503 97.237-19.506 30.229-13.077 56.693-30.869 79.396-53.497 22.702-22.574 40.548-49.038 53.429-79.392 12.949-30.29 19.385-62.745 19.385-97.369 0-34.556-6.439-67.015-19.385-97.365-12.882-30.29-30.731-56.818-53.429-79.392-22.709-22.631-49.166-40.423-79.396-53.429-30.212-13.010-62.613-19.58-97.237-19.58-34.56 0-67.019 6.571-97.301 19.58-30.35 13.006-56.818 30.798-79.449 53.429-22.574 22.574-40.427 49.106-53.436 79.392-13.006 30.35-19.513 62.809-19.513 97.365 0 34.624 6.507 67.079 19.513 97.369 13.006 30.354 30.859 56.814 53.433 79.392 22.631 22.631 49.099 40.423 79.449 53.497 30.289 13.002 62.744 19.506 97.304 19.506zM400.235 248.423c0 2.866-1.017 5.358-3.253 7.335s-4.523 2.93-7.072 2.93h-267.56c-6.891 0-10.329-3.438-10.329-10.265v-49.419c0-6.891 3.442-10.332 10.329-10.332h267.559c2.549 0 4.836 1.024 7.072 3.001 2.236 1.988 3.253 4.405 3.253 7.332l0.001 49.418z" />
<glyph unicode="&#x50;" d="M391.317 44.114l72.274-72.274 44.569 44.569-72.274 72.274 72.274 72.277h-189.12v-189.116l72.277 72.27zM3.84 287.040h189.12v189.12l-72.277-72.274-71.535 71.595-44.568-44.569 71.534-71.598-72.274-72.274zM3.84 16.409l44.569-44.569 72.274 72.274 72.277-72.274v189.12h-189.12l72.274-72.274-72.274-72.277zM319.040 287.040h189.116l-72.274 72.277 71.659 71.598-44.565 44.566-71.659-71.598-72.277 72.277v-189.12z" />
<glyph unicode="&#x51;" d="M504.462 46.286l-63.733 66.549 46.88 47.076c3.872 3.872 5.052 9.703 2.955 14.82-2.037 5.049-6.948 10.030-12.462 10.098l-164.53-0.001c-7.545 0.068-14.66-5.447-14.784-12.981v-168.302c-0.071-5.575 3.239-10.624 8.384-12.789 5.12-2.158 11.051-0.978 14.955 2.951l46.88 47.079 63.598-66.35c3.15-3.211 8.324-3.211 11.474 0l60.384 60.384c3.171 3.139 3.171 8.252-0.001 11.466zM433.358 473.749l-66.546-63.73-47.075 46.877c-3.9 3.872-9.735 5.049-14.816 2.951-5.052-2.034-9.998-6.951-10.098-12.459v-164.501c-0.068-7.538 5.44-14.684 12.981-14.816l168.299 0.064c5.579-0.132 10.628 3.211 12.786 8.324 2.165 5.116 1.013 11.083-2.948 14.951l-47.076 46.88 66.386 63.595c3.179 3.147 3.179 8.331 0 11.474l-60.383 60.39c-3.176 3.215-8.331 3.215-11.51 0zM6.763 400.793l63.726-66.482-46.877-47.139c-3.868-3.872-5.045-9.703-2.955-14.816 2.034-5.049 6.951-10.030 12.462-10.030h164.501c7.538-0.135 14.688 5.372 14.784 12.91l0.001 168.305c0.092 5.575-3.25 10.62-8.359 12.782-5.116 2.162-11.047 1.049-14.948-2.951l-46.879-47.008-63.599 66.287c-3.182 3.211-8.327 3.211-11.477 0l-60.38-60.32c-3.211-3.211-3.179-8.327 0-11.538zM78.852-25.806l66.517 63.73 47.108-46.876c3.868-3.868 9.735-5.045 14.816-2.951 5.045 2.030 9.998 6.948 10.066 12.462l-0.001 164.493c0.096 7.541-5.408 14.692-12.949 14.816h-168.334c-5.54 0.071-10.592-3.275-12.754-8.384-2.162-5.116-1.017-11.019 2.951-14.951l47.076-46.88-66.383-63.601c-3.182-3.143-3.182-8.324 0-11.474l60.384-60.384c3.179-3.14 8.327-3.14 11.503 0z" />
<glyph unicode="&#x52;" d="M435.886 88.683l-72.277 72.277-44.569-44.572 72.274-72.274-72.274-72.274h189.116v189.12l-72.27-72.277zM192.96 476.16h-189.12v-189.12l72.274 72.277 71.598-71.534 44.572 44.569-71.601 71.534 72.277 72.274zM192.96 116.388l-44.569 44.572-72.277-72.274-72.274 72.274v-189.116h189.12l-72.277 72.274 72.277 72.27zM508.16 476.16h-189.12l72.274-72.274-71.595-71.534 44.569-44.569 71.598 71.534 72.274-72.277v189.12z" />
<glyph unicode="&#x53;" d="M359.556 272.444l-59.804 59.808c-3.147 3.143-3.147 8.242 0 11.388l65.728 62.994-46.632 46.404c-3.915 3.893-5.067 9.774-2.923 14.848 2.148 5.074 7.157 8.341 12.665 8.27h166.734c7.474-0.117 12.935-7.157 12.836-14.631v-162.976c-0.068-5.429-4.964-10.297-9.988-12.348-5.028-2.059-10.809-0.892-14.649 2.933l-46.677 46.457-65.902-63.154c-3.147-3.139-8.242-3.143-11.388 0.007zM304.441 109.052l63.154-65.902-46.457-46.67c-3.829-3.84-4.992-9.625-2.937-14.645 2.048-5.028 6.919-9.924 12.348-9.995h162.983c7.47-0.096 14.514 5.369 14.628 12.839v166.731c0.075 5.511-3.196 10.517-8.27 12.665-5.077 2.148-10.955 0.988-14.848-2.926l-46.414-46.628-62.99 65.728c-3.147 3.147-8.242 3.147-11.388 0l-59.808-59.804c-3.148-3.151-3.148-8.242-0.001-11.393zM141.052 175.559l-65.906-63.15-46.67 46.457c-3.84 3.829-9.621 4.988-14.649 2.937-5.024-2.052-9.924-6.923-9.988-12.352v-162.98c-0.1-7.474 5.362-14.514 12.832-14.631h166.738c5.511-0.071 10.517 3.2 12.665 8.27 2.144 5.077 0.988 10.958-2.923 14.855l-46.631 46.407 65.728 62.994c3.147 3.14 3.147 8.238 0 11.388l-59.804 59.801c-3.146 3.154-8.245 3.147-11.392 0.004zM207.559 338.951l-63.15 65.902 46.453 46.671c3.833 3.836 4.992 9.621 2.937 14.645-2.052 5.028-6.923 9.927-12.352 9.988l-162.976-0.001c-7.474 0.104-14.517-5.358-14.627-12.832v-166.734c-0.075-5.511 3.189-10.517 8.267-12.665 5.077-2.144 10.958-0.988 14.852 2.926l46.407 46.631 62.99-65.728c3.147-3.147 8.242-3.147 11.392 0l59.804 59.804c3.15 3.144 3.146 8.243 0.003 11.393z" />
<glyph unicode="&#x54;" d="M255.996 476.16c-80.444 0-145.65-65.209-145.65-145.65 0-1.984 0.060-4.039 0.156-6.13 0.050-1.216 0.124-2.418 0.206-3.63 0.053-0.768 0.11-1.55 0.178-2.336 0.103-1.284 0.21-2.571 0.348-3.847 12.080-117.66 144.766-342.727 144.766-342.727s132.683 225.063 144.764 342.731c0.142 1.273 0.242 2.564 0.348 3.847 0.064 0.786 0.128 1.568 0.181 2.336 0.078 1.212 0.153 2.411 0.206 3.63 0.096 2.091 0.156 4.149 0.156 6.13-0.009 80.437-65.218 145.646-145.659 145.646zM319.036 318.56c0-34.816-28.224-63.040-63.040-63.040-34.812 0-63.036 28.224-63.036 63.040s28.224 63.040 63.036 63.040c34.816 0 63.040-28.224 63.040-63.040z" />
<glyph unicode="&#x55;" d="M367.428 429.991c-61.557 61.561-161.291 61.561-222.866 0-61.557-61.529-61.557-161.351 0-222.852 0.014 0 111.442-109.22 111.442-235.3 0 126.080 111.424 235.3 111.424 235.3 61.575 61.497 61.575 161.323 0 222.852zM256.004 255.524c-34.848 0-63.044 28.196-63.044 63.040 0 34.848 28.196 63.040 63.044 63.040 34.844 0 63.036-28.196 63.036-63.040s-28.192-63.040-63.036-63.040z" />
<glyph unicode="&#x56;" d="M500.149 349.479l-117.828 73.799c-5.227 3.268-11.755 3.268-16.978 0l-109.343-68.487-109.344 68.487c-5.22 3.268-11.751 3.268-16.967 0l-117.838-73.799c-4.964-3.115-8.007-8.718-8.007-14.77v-295.211c0-6.204 3.2-11.929 8.373-14.994 5.17-3.047 11.513-2.969 16.615 0.22l109.348 68.48 109.337-68.48c5.223-3.268 11.751-3.268 16.978 0l109.34 68.48 109.348-68.48c2.606-1.636 5.547-2.453 8.487-2.453 2.802 0 5.6 0.75 8.128 2.236 5.173 3.058 8.366 8.786 8.366 14.994v295.205c0 6.051-3.048 11.655-8.015 14.773zM121.675 123.047l-84.836-53.138v255.051l84.836 53.138v-255.051zM239.509 69.909l-84.842 53.138v255.051l84.839-53.145v-255.044zM357.337 123.047l-84.836-53.138v255.047l84.839 53.145-0.003-255.054zM475.172 69.909l-84.832 53.138v255.051l84.832-53.138v-255.051z" />
<glyph unicode="&#x57;" d="M3.964 362.482v74.89c0 21.429 17.365 38.788 38.78 38.788h36.107v-113.678h-74.887zM394.482-28.043h74.887c21.419 0 38.788 17.369 38.788 38.791l-0.001 152.459-113.678-0.21v-191.040zM276.782 288.462l4.996 5.010c7.829 8.42 14.407 17.141 14.407 28.071 0 11.829-6.745 20.448-18.983 20.448-7.332 0-13.66-3.008-17.739-6.72l3.58-10.926c2.83 2.603 6.912 5.412 11.577 5.412 6.247 0 8.914-4.21 8.914-9.525-0.167-7.62-5.916-14.933-17.739-27.666l-6.997-7.62v-9.223h38.389v12.53h-20.402l0.001 0.209zM351.815 310.617v0.299c5.333 3.211 7.829 8.725 7.829 14.332 0 7.922-5.248 16.743-17.906 16.743-10.827 0-19.072-7.321-19.072-18.347 0-5.714 2.585-11.029 7.833-14.233v-0.299c-5.916-3.111-9.664-8.523-9.664-16.341 0-8.821 6.325-18.144 20.071-18.144 12.576 0 20.814 7.918 20.814 19.744 0.001 8.424-4.657 13.842-9.905 16.246zM341.159 331.666c4.658 0 6.574-4.011 6.574-8.018 0-4.11-2.581-7.317-5.493-8.324-4.334 1.611-7.662 4.412-7.662 8.821 0 4.111 2.247 7.521 6.581 7.521zM341.404 285.156c-4.747 0-7.744 4.412-7.655 9.12 0 4.715 2.414 8.316 6.578 9.724 4.996-1.6 8.494-5.010 8.494-10.727-0.007-4.608-2.922-8.117-7.417-8.117zM508.032 359.68v77.564c0 21.426-17.365 38.791-38.78 38.791l-290.884 0.001v-115.752h18.176l0.964-106.976-22.425 19.403v64.903h-19.996l-0.001 138.422h-54.286v-135.136h-96.96v-330.276c0-21.422 17.365-38.784 38.78-38.784h57.412c0.16 18.119 1.127 130.884 0.398 135.207-32.971 4.793-58.293 33.159-58.293 67.467 0 37.646 30.528 68.171 68.174 68.171 37.65 0 68.178-30.524 68.178-68.171 0-34.304-25.323-62.674-58.29-67.467l0.018-135.207h115.108v136.953l22.809-0.43 0.473-136.519h113.074l-0.001 213.912 136.348-0.612v97.576l-32.569-0.729 12.572 77.689h20.001zM232.476 432l0.658-0.025c2.795-31.644 34.148-37.145 47.868-37.145 19.684 0 53.611 3.367 58.148 32.992 4.544-29.625 39.623-33.945 58.155-33.945 16.213 0 44.821 6.183 47.84 37.589l0.679 0.021c0 0 10.745-50.677 10.592-55.129h-234.56c-0.135 4.449 10.62 55.642 10.62 55.642zM339.154 221.781c-64.9 0-117.504 55.915-117.504 124.889 0 4.814 0.075 9.422 0.21 13.877h234.56c0.156-4.452 0.238-9.060 0.238-13.877 0-68.974-52.608-124.889-117.504-124.889zM404.366 341.995c-13.995 0-20.654-14.937-20.654-33.781 0.082-18.446 6.244-33.582 20.231-33.582 13.824 0 20.572 13.835 20.572 33.98 0.004 17.845-5.66 33.383-20.149 33.383zM404.277 286.155c-4.91 0-7.911 7.115-7.826 22.055-0.082 15.136 3.083 22.251 7.744 22.251 5.081 0 7.662-7.62 7.662-22.055 0.001-14.838-2.659-22.251-7.58-22.251z" />
<glyph unicode="&#x58;" d="M506.066 260.754c-14.898 101.12-90.777 187.182-196.583 209.984-136.271 29.376-270.553-57.287-299.926-193.554-29.372-136.274 57.284-270.556 193.554-299.925 136.27-29.376 270.549 57.287 299.925 193.557 1.675 7.748 2.944 15.488 3.872 23.211 2.052 15.555 1.448 54.702-0.842 66.727zM452.142 207.733c-0.661-9.067-1.909-15.964-3.886-25.109-19.072-88.487-92.793-150.041-179.026-154.699l-13.764 46.428-13.426-46.368c-9.724 0.608-17.305 1.941-27.122 4.057-87.844 18.937-149.124 91.676-154.578 177.124l46.464 13.785-46.606 13.543c0.551 10.308 1.892 18.471 4.139 28.889 19.079 88.523 92.857 150.094 179.14 154.702l13.845-46.606 13.5 46.517c9.643-0.615 17.12-1.938 26.852-4.036 89.177-19.225 151.033-93.966 154.827-181.035l-46.567-13.831 46.208-13.361zM311.058 249.97l23.065 27.367-32.057-14.244c-5.451 5.991-12.206 10.916-20.075 14.276l-5.298 63.481-24.004-59.154c-3.189-0.363-6.318-1.013-9.38-1.884l-92.297 92.917 59.989-116.345c-1.963-2.923-3.701-6.041-5.138-9.376l-59.086-7.612 54.78-22.56c1.042-8.245 3.822-16.149 8.135-23.182l-19.147-23.716 28.299 12.316c4.128-3.996 8.889-7.431 14.222-10.101l8.747-67.193 24.949 61.493c2.852 0.377 5.632 1.042 8.373 1.831l52.032-52.38c-1.6-1.522-2.023-3.957-0.789-5.884 0.896-1.401 2.414-2.162 3.961-2.162 0.871 0 1.753 0.242 2.542 0.747 0.313 0.203 0.608 0.42 0.917 0.626l33.362-33.586-21.781 42.247c1.348 1.682 1.486 4.075 0.085 5.831-0.988 1.248-2.482 1.764-3.957 1.675l-34.19 66.315c1.063 1.582 2.101 3.189 3.015 4.9l67.036 6.709-60.27 24.402c-0.508 7.789-2.595 15.359-6.040 22.246zM241.76 175.794c-26.624 9.6-40.412 38.976-30.812 65.604 1.010 2.795 2.279 5.412 3.698 7.911l21.621-41.931 0.021 0.018 33.291-33.518c-8.978-1.874-18.557-1.423-27.819 1.916zM307.364 206.613c-1.003-2.78-2.268-5.39-3.676-7.879l-21.785 42.251-0.014-0.014-32.978 33.198c8.924 1.835 18.439 1.365 27.637-1.952 26.624-9.604 40.423-38.973 30.816-65.604zM225.856 356.196c0.345 0 0.704 0.039 1.052 0.121 4.391 1.003 8.868 1.796 13.412 2.35 2.581 0.316 4.412 2.66 4.092 5.237s-2.66 4.416-5.237 4.103c-4.868-0.601-9.668-1.447-14.368-2.521-2.532-0.576-4.121-3.104-3.531-5.636 0.502-2.186 2.436-3.654 4.58-3.654zM131.2 282.556c0.654-0.313 1.348-0.462 2.027-0.462 1.753 0 3.438 0.981 4.245 2.667 1.98 4.107 4.153 8.1 6.528 11.947 1.355 2.212 0.672 5.116-1.54 6.478s-5.113 0.668-6.478-1.543c-2.539-4.132-4.878-8.409-6.99-12.804-1.12-2.347-0.135-5.152 2.208-6.283zM125.988 207.804v0.007c-0.668 4.444-1.113 8.964-1.323 13.543-0.128 2.599-2.332 4.601-4.917 4.484-2.606-0.121-4.608-2.325-4.484-4.921 0.231-4.903 0.715-9.742 1.426-14.51 0.356-2.332 2.364-4.007 4.654-4.007 0.231 0 0.466 0.018 0.7 0.053 2.568 0.391 4.335 2.784 3.944 5.351zM120.601 243.2c0.235-0.039 0.466-0.050 0.7-0.050 2.29-0.004 4.295 1.682 4.647 4.011 0.672 4.53 1.564 8.971 2.684 13.344 0.651 2.517-0.868 5.077-3.381 5.721-2.521 0.647-5.084-0.868-5.735-3.388-1.195-4.679-2.162-9.454-2.88-14.3-0.373-2.568 1.394-4.961 3.965-5.338zM266.148 359.292v0.007c4.576-0.327 9.084-0.892 13.511-1.671 0.277-0.053 0.551-0.075 0.825-0.075 2.24 0 4.22 1.6 4.622 3.883 0.455 2.564-1.252 5.006-3.808 5.451-4.743 0.843-9.575 1.444-14.471 1.792-2.592 0.188-4.846-1.764-5.035-4.356-0.192-2.584 1.76-4.839 4.356-5.031zM365.44 302.244c2.564-3.744 4.942-7.616 7.111-11.612 0.853-1.568 2.471-2.457 4.132-2.457 0.764 0 1.536 0.181 2.247 0.576 2.283 1.237 3.125 4.1 1.884 6.382-2.329 4.274-4.871 8.427-7.623 12.427-1.465 2.14-4.391 2.684-6.539 1.22-2.14-1.472-2.688-4.395-1.223-6.535l0.011-0.001zM385.966 253.66c0.441-2.233 2.404-3.783 4.601-3.783 0.306 0 0.612 0.028 0.924 0.089 2.549 0.512 4.206 2.99 3.691 5.532-0.956 4.804-2.158 9.522-3.595 14.137-0.772 2.485-3.413 3.868-5.888 3.1-2.482-0.775-3.865-3.406-3.097-5.888 1.338-4.305 2.461-8.707 3.364-13.187zM304.512 350.652v0c4.245-1.653 8.388-3.527 12.412-5.604 0.686-0.359 1.419-0.519 2.144-0.519 1.707 0 3.353 0.928 4.192 2.549 1.191 2.311 0.284 5.141-2.027 6.332-4.306 2.222-8.743 4.228-13.291 6.005-2.425 0.953-5.152-0.252-6.094-2.663-0.956-2.427 0.243-5.154 2.664-6.1zM338.61 331.019c3.552-2.827 6.962-5.831 10.208-9.010 0.917-0.892 2.105-1.333 3.289-1.333 1.223 0 2.443 0.469 3.36 1.408 1.817 1.86 1.778 4.839-0.075 6.652-3.474 3.399-7.115 6.62-10.926 9.646-2.037 1.621-4.996 1.28-6.613-0.75-1.607-2.034-1.276-4.988 0.757-6.61v-0.003zM187.975 341.248c0.8 0 1.618 0.203 2.357 0.64 3.918 2.265 7.95 4.341 12.11 6.215 2.364 1.060 3.428 3.844 2.361 6.212-1.067 2.372-3.844 3.428-6.219 2.364-4.455-2.005-8.782-4.231-12.971-6.667-2.251-1.305-3.019-4.181-1.703-6.428 0.862-1.5 2.44-2.336 4.065-2.336zM365.614 153.301c-2.564-3.758-5.316-7.371-8.238-10.837-1.682-1.984-1.426-4.949 0.551-6.628 0.878-0.747 1.959-1.109 3.029-1.109 1.337 0 2.67 0.565 3.605 1.668 3.132 3.712 6.080 7.588 8.821 11.609 1.465 2.148 0.914 5.074-1.227 6.535-2.15 1.461-5.076 0.913-6.541-1.238zM137.604 170.233c-1.966 4.078-3.73 8.267-5.276 12.551-0.882 2.439-3.573 3.701-6.012 2.823-2.453-0.878-3.716-3.573-2.83-6.020 1.664-4.601 3.556-9.088 5.66-13.44 0.811-1.678 2.492-2.66 4.238-2.66 0.686 0 1.383 0.149 2.048 0.469 2.332 1.127 3.317 3.943 2.187 6.279l-0.015 0.001zM393.212 232.676c-2.599-0.007-4.693-2.116-4.693-4.718h0.011c0-0.103 0-0.213 0-0.32 0-4.59-0.238-9.124-0.69-13.6-0.263-2.585 1.611-4.885 4.192-5.156 0.156-0.014 0.32-0.028 0.476-0.028 2.386 0 4.437 1.806 4.683 4.228 0.498 4.789 0.747 9.639 0.747 14.553 0 0.121 0 0.235 0 0.345-0.014 2.605-2.126 4.703-4.726 4.696zM388.583 191.844c-2.485 0.772-5.124-0.626-5.884-3.111-1.337-4.359-2.898-8.622-4.672-12.782-1.017-2.389 0.089-5.152 2.482-6.169 0.601-0.252 1.223-0.373 1.838-0.373 1.831 0 3.566 1.074 4.334 2.862 1.899 4.452 3.577 9.020 5.013 13.7 0.761 2.477-0.64 5.115-3.111 5.873zM304.811 104.747c-4.203-1.657-8.508-3.1-12.907-4.32-2.507-0.69-3.975-3.285-3.278-5.785 0.58-2.084 2.468-3.449 4.537-3.449 0.412 0 0.839 0.053 1.259 0.171 4.711 1.308 9.33 2.859 13.831 4.622 2.414 0.956 3.605 3.687 2.656 6.105-0.946 2.417-3.684 3.605-6.098 2.656zM159.616 317.287c3.093 3.335 6.343 6.503 9.746 9.504 1.956 1.717 2.144 4.686 0.427 6.635-1.714 1.952-4.679 2.144-6.624 0.427-3.659-3.211-7.147-6.606-10.45-10.183-1.76-1.906-1.65-4.878 0.26-6.642 0.903-0.836 2.048-1.252 3.186-1.252 1.261 0.004 2.527 0.512 3.455 1.511zM266.468 96.004c-3.292-0.242-6.603-0.37-9.945-0.37-1.237 0-2.457 0.021-3.68 0.050-2.596 0.078-4.757-1.973-4.825-4.572-0.075-2.592 1.98-4.754 4.576-4.825 1.298-0.036 2.606-0.060 3.929-0.060 3.566 0 7.122 0.139 10.638 0.398 2.588 0.203 4.533 2.45 4.341 5.042s-2.45 4.532-5.034 4.337zM159.826 137.767c-3.086 3.324-6.009 6.812-8.743 10.436-1.572 2.076-4.512 2.485-6.588 0.924-2.076-1.557-2.492-4.512-0.928-6.588 2.933-3.886 6.062-7.62 9.369-11.179 0.924-0.992 2.183-1.497 3.442-1.497 1.148 0 2.297 0.416 3.207 1.259 1.899 1.771 2.002 4.74 0.238 6.652l-0.001-0.007zM190.599 113.237v0.007c-3.936 2.279-7.751 4.747-11.424 7.406-2.098 1.532-5.042 1.056-6.564-1.045s-1.052-5.042 1.045-6.571c3.94-2.848 8.021-5.497 12.238-7.932 0.743-0.427 1.554-0.629 2.35-0.629 1.625 0 3.207 0.839 4.078 2.347 1.303 2.247 0.531 5.12-1.723 6.417zM227.221 98.891v0c-4.448 1.013-8.828 2.247-13.099 3.698-2.46 0.836-5.134-0.491-5.966-2.948-0.839-2.46 0.48-5.124 2.948-5.963 4.576-1.55 9.262-2.876 14.041-3.961 0.352-0.075 0.697-0.11 1.042-0.11 2.144 0 4.082 1.476 4.583 3.659 0.562 2.531-1.017 5.052-3.549 5.625z" />
<glyph unicode="&#x59;" d="M3.84 71.961l127.332-53.383v357.461l-127.332 53.38v-357.458zM85.877 241.333c0.782 3.577 4.316 5.852 7.897 5.067 11.9-2.599 15.488-5.906 16.896-6.681 3.211-1.764 4.388-5.81 2.617-9.017-1.209-2.197-3.481-3.442-5.824-3.442-1.081 0-2.176 0.263-3.189 0.821-4.814 2.649-9.316 4.469-13.326 5.34h0.007c-3.591 0.791-5.856 4.325-5.078 7.912zM47.211 220.772c2.855 2.528 5.12 4.903 13.49 10.624 3.026 2.073 7.161 1.291 9.23-1.735 2.062-3.029 1.284-7.161-1.735-9.23-4.096-2.798-8.21-6.087-12.181-9.604v0.007c-1.262-1.116-2.834-1.668-4.402-1.668-1.835 0-3.659 0.754-4.971 2.233-2.429 2.749-2.176 6.944 0.569 9.373zM10.83 184.224c0.071 0.092 3.961 5.628 10.322 13.365 2.329 2.837 6.51 3.239 9.348 0.914 2.827-2.329 3.239-6.51 0.91-9.344-3.040-3.701-5.493-6.873-7.175-9.109-1.685-2.229-2.56-3.474-2.56-3.474v-0.004c-1.294-1.835-3.346-2.812-5.429-2.812-1.323 0-2.656 0.395-3.815 1.212-3.005 2.112-3.723 6.251-1.601 9.252zM148.082 18.581l127.332 53.383-0.001 357.455-127.331-53.38v-357.458zM237.081 128.384c1.028 3.524 4.715 5.547 8.231 4.519 3.225-0.939 6.45-1.44 9.796-1.44 1.223 0 2.464 0.064 3.733 0.206 3.648 0.42 6.933-2.204 7.346-5.849 0.409-3.637-2.212-6.926-5.852-7.339-1.764-0.203-3.506-0.295-5.23-0.295-4.704 0-9.223 0.722-13.508 1.966-3.521 1.028-5.54 4.708-4.516 8.232zM196.341 159.691c2.279 2.873 6.45 3.36 9.33 1.088 4.373-3.463 8.597-6.98 12.736-10.297 2.859-2.297 3.317-6.475 1.024-9.333-1.316-1.639-3.243-2.485-5.184-2.485-1.454 0-2.926 0.476-4.156 1.458-4.256 3.428-8.455 6.916-12.665 10.24-2.88 2.278-3.36 6.452-1.085 9.329zM159.268 190.084c2.311 2.844 6.492 3.278 9.34 0.956 4.274-3.474 8.494-6.72 12.622-9.611 3.004-2.108 3.723-6.247 1.614-9.252-1.291-1.845-3.349-2.83-5.44-2.83-1.316 0-2.645 0.391-3.801 1.205-4.466 3.136-8.921 6.571-13.372 10.19-2.848 2.312-3.278 6.494-0.963 9.342zM292.331 71.961l69.678-53.383v357.461l-69.678 53.38v-357.458zM333.468 174.617c2.898 4.345 5.799 8.885 8.725 13.579 1.938 3.111 6.030 4.068 9.145 2.123 3.111-1.938 4.057-6.030 2.126-9.141-2.983-4.782-5.963-9.433-8.949-13.92-1.276-1.92-3.385-2.962-5.536-2.962-1.262 0-2.542 0.363-3.673 1.113-3.050 2.036-3.871 6.157-1.838 9.208zM304.878 137.671c2.13 1.788 4.316 3.776 6.574 5.959 1.536 1.493 3.076 3.072 4.619 4.743 2.478 2.695 6.688 2.869 9.38 0.377 2.695-2.485 2.866-6.695 0.377-9.387-1.7-1.831-3.403-3.598-5.138-5.269-2.453-2.389-4.871-4.576-7.253-6.585-1.252-1.045-2.77-1.557-4.281-1.557-1.888 0-3.765 0.804-5.077 2.361-2.369 2.805-2.010 7.001 0.799 9.358zM380.825 376.039v-357.461l127.332 53.383-0.001 357.458-127.331-53.38zM413.394 252.096c-3.058-4.388-6.066-8.857-9.017-13.383-1.269-1.956-3.396-3.012-5.564-3.012-1.244 0-2.503 0.348-3.62 1.077-3.068 2.002-3.94 6.123-1.938 9.195 3.026 4.626 6.105 9.209 9.248 13.717 2.108 3.012 6.233 3.748 9.244 1.646 3.001-2.093 3.737-6.232 1.647-9.24zM446.272 292.199c-3.687-3.669-7.3-7.541-10.827-11.588-1.312-1.5-3.154-2.268-5.003-2.268-1.547 0-3.104 0.537-4.366 1.632-2.763 2.418-3.047 6.606-0.636 9.365 3.723 4.26 7.534 8.363 11.47 12.274 2.603 2.585 6.809 2.574 9.394-0.028 2.585-2.596 2.574-6.809-0.032-9.387zM487.268 321.44c-4.651-2.066-9.18-4.484-13.589-7.211h-0.007c-1.088-0.668-2.29-0.988-3.481-0.988-2.226 0-4.402 1.113-5.66 3.147-1.927 3.118-0.96 7.207 2.155 9.141 4.896 3.019 9.952 5.717 15.193 8.043 3.349 1.486 7.268-0.018 8.761-3.371 1.484-3.353-0.023-7.275-3.372-8.761z" />
<glyph unicode="&#x5a;" d="M5.82 35.051l154.429-64.74v433.54l-154.429 64.743v-433.543zM124.864 169.86c4.366 2.766 10.148 1.461 12.91-2.901 3.918-6.208 7.602-12.42 11.246-18.379 2.695-4.402 1.312-10.162-3.1-12.857-1.522-0.932-3.207-1.38-4.875-1.38-3.147 0-6.226 1.593-7.993 4.476-3.726 6.101-7.367 12.224-11.097 18.137-2.762 4.367-1.464 10.152 2.909 12.904zM92.476 226.524c4.427 2.667 10.172 1.237 12.843-3.186 3.716-6.172 7.463-12.046 11.25-17.468 2.955-4.242 1.913-10.080-2.322-13.035-1.632-1.134-3.502-1.685-5.355-1.685-2.958 0-5.863 1.397-7.68 4.004-4.1 5.87-8.057 12.092-11.922 18.524-2.67 4.43-1.24 10.176 3.186 12.846zM61.109 287.253c4.466 2.596 10.194 1.067 12.789-3.406 3.566-6.158 7.090-12.484 10.588-18.844 2.492-4.526 0.843-10.222-3.684-12.715-1.433-0.786-2.976-1.163-4.501-1.159-3.3 0-6.507 1.753-8.213 4.85-3.474 6.304-6.926 12.516-10.382 18.478-2.591 4.48-1.062 10.208 3.403 12.796zM17.116 329.884c2.709 4.409 8.476 5.767 12.875 3.058 6.585-4.068 12.53-9.447 18.14-15.673 3.452-3.851 3.14-9.767-0.704-13.22-1.792-1.604-4.025-2.393-6.254-2.393-2.564 0-5.116 1.045-6.965 3.1-4.754 5.308-9.493 9.461-14.034 12.252-4.402 2.718-5.767 8.475-3.058 12.876zM180.764-29.689l154.432 64.74v433.543l-154.432-64.743v-433.54zM295.399 122.763c5.618 3.861 11.339 7.975 17.152 12.27 4.153 3.068 10.009 2.19 13.081-1.97 3.072-4.153 2.194-10.009-1.959-13.081-5.948-4.398-11.829-8.629-17.66-12.647h-0.007c-1.618-1.109-3.467-1.65-5.291-1.65-2.98 0-5.906 1.415-7.719 4.057-2.93 4.263-1.849 10.087 2.403 13.021zM249.486 99.673c4.345 1.348 8.967 3.036 13.877 5.077 1.628 0.683 3.278 1.408 4.942 2.176 4.693 2.155 10.254 0.1 12.409-4.594 2.165-4.697 0.107-10.258-4.587-12.409-1.86-0.86-3.716-1.678-5.564-2.446-5.394-2.254-10.556-4.135-15.502-5.675v-0.007c-0.928-0.288-1.863-0.423-2.784-0.423-3.993 0-7.687 2.567-8.939 6.578-1.539 4.939 1.213 10.187 6.148 11.723zM194.5 104.21c3.204 4.053 9.095 4.732 13.138 1.511 4.768-3.772 9.845-6.603 15.662-8.416 4.939-1.536 7.694-6.773 6.162-11.712-1.244-4.014-4.942-6.588-8.932-6.588-0.917 0-1.852 0.139-2.78 0.423-8.238 2.556-15.46 6.642-21.749 11.637h0.011c-4.058 3.214-4.73 9.099-1.512 13.145zM355.712 468.594v-433.54l154.428-64.74v433.537l-154.428 64.743zM394.482 170.361c-5.657-4.391-11.285-8.786-16.86-13.141l-0.001 0.007c-1.707-1.337-3.74-1.988-5.749-1.988-2.78 0-5.536 1.237-7.378 3.595-3.186 4.075-2.464 9.952 1.607 13.134 5.575 4.352 11.214 8.764 16.917 13.18 4.075 3.168 9.952 2.428 13.124-1.66 3.168-4.075 2.429-9.959-1.66-13.127zM439.694 205.959c-5.81-3.915-11.598-7.943-17.344-12.060h-0.007c-1.65-1.184-3.556-1.753-5.44-1.753-2.912 0-5.785 1.355-7.612 3.9-3.012 4.206-2.041 10.055 2.148 13.063 5.884 4.217 11.829 8.356 17.824 12.38 4.288 2.88 10.098 1.742 12.981-2.546 2.883-4.291 1.742-10.107-2.55-12.984zM488.356 236.747c-6.24-2.741-12.462-5.778-18.667-9.035-1.39-0.736-2.884-1.084-4.348-1.084-3.364 0-6.613 1.82-8.292 5.006-2.411 4.576-0.647 10.233 3.929 12.636 6.546 3.445 13.156 6.66 19.829 9.6 4.732 2.080 10.251-0.053 12.338-4.786 2.083-4.732-0.057-10.254-4.789-12.337z" />
<glyph unicode="&#x5b;" d="M328.046 476.16l72.046-72.046-252.156-252.16 36.021-36.025 252.16 252.16 72.046-72.046 0.001 180.117h-180.118zM364.071 43.886h-288.185v288.185h144.092l72.046 72.046h-288.184v-432.277h432.274v288.181l-72.046-72.043v-144.092z" />
<glyph unicode="&#x5c;" d="M350.56 476.16v-126.080h-63.040v63.040h-220.64v-378.236h220.64v63.040h63.040v-126.084h-346.72v504.32h346.72zM382.076 97.924v63.040h-189.116v126.076h189.116v63.040l126.084-133.959z" />
<glyph unicode="&#x5d;" d="M418.105 260.021h-18.012l-0.001 72.050c-0.003 79.577-64.512 144.089-144.092 144.089-79.577 0-144.092-64.512-144.092-144.089v-72.046h-18.009c-9.906 0-18.012-8.107-18.012-18.009v-252.16c0-9.906 8.107-18.009 18.012-18.009h324.206c9.906 0 18.009 8.103 18.009 18.009v252.16c0 9.902-8.103 18.005-18.009 18.005zM285.792 124.889l6.233-81.003h-72.046l6.229 81.003c-14.606 9.675-24.242 26.244-24.242 45.077 0 29.838 24.192 54.034 54.034 54.034 29.845 0 54.034-24.196 54.034-54.034 0-18.834-9.639-35.402-24.242-45.077zM147.932 260.021v72.050c0 59.684 48.38 108.068 108.068 108.068 59.684 0 108.071-48.384 108.071-108.068v-72.046h-216.139z" />
<glyph unicode="&#x5e;" d="M256.018 476.16c-82.044 0-148.533-66.489-148.533-148.533v-49.536h74.268v49.536c0 40.985 33.248 74.268 74.268 74.268 40.988 0 74.268-33.28 74.268-74.268v-49.536h74.268l0.001 49.536c-0.007 82.044-66.496 148.533-148.54 148.533zM429.284 253.497h-346.603c-13.7 0-24.875-11.207-24.875-24.942v-231.84c0-13.732 11.179-24.875 24.875-24.875h346.603c13.732 0 24.91 11.143 24.91 24.875v231.84c0 13.735-11.175 24.942-24.91 24.942zM299.982 41.625c3.047-6.094-0.036-11.068-6.83-11.068l-74.265-0.001c-6.798 0-9.881 4.974-6.869 11.068l21.931 43.79c-16.22 8.199-27.467 24.732-27.467 44.139 0 27.328 22.172 49.536 49.536 49.536 27.328 0 49.5-22.208 49.5-49.536 0-19.406-11.246-35.94-27.431-44.139l21.895-43.789zM256.018 476.16c-82.044 0-148.533-66.489-148.533-148.533v-49.536h74.268v49.536c0 40.985 33.248 74.268 74.268 74.268 40.988 0 74.268-33.28 74.268-74.268v-49.536h74.268l0.001 49.536c-0.007 82.044-66.496 148.533-148.54 148.533zM429.284 253.497h-346.603c-13.7 0-24.875-11.207-24.875-24.942v-231.84c0-13.732 11.179-24.875 24.875-24.875h346.603c13.732 0 24.91 11.143 24.91 24.875v231.84c0 13.735-11.175 24.942-24.91 24.942zM299.982 41.625c3.047-6.094-0.036-11.068-6.83-11.068l-74.265-0.001c-6.798 0-9.881 4.974-6.869 11.068l21.931 43.79c-16.22 8.199-27.467 24.732-27.467 44.139 0 27.328 22.172 49.536 49.536 49.536 27.328 0 49.5-22.208 49.5-49.536 0-19.406-11.246-35.94-27.431-44.139l21.895-43.789z" />
<glyph unicode="&#x5f;" d="M3.84 468.871h504.32v-68.619h-504.32v68.619zM3.84 188.121h504.32v-68.619h-504.32v68.619zM3.84 328.501h504.32v-68.625h-504.32v68.625zM3.84 47.748h504.32v-68.619h-504.32v68.619z" />
<glyph unicode="&#x60;" d="M3.911 350.222c0-17.422 14.222-31.644 31.645-31.644s31.645 14.222 31.645 31.644-14.222 31.644-31.645 31.644-31.645-14.222-31.645-31.644zM3.911 224c0-17.422 14.222-31.644 31.645-31.644s31.645 14.222 31.645 31.644-14.222 31.644-31.645 31.644c-17.778 0-31.645-14.222-31.645-31.644zM3.911 97.778c0-17.422 14.222-31.644 31.645-31.644s31.645 14.222 31.645 31.644c0 17.422-14.222 31.644-31.645 31.644-17.778 0-31.645-14.222-31.645-31.644zM129.778 381.511h378.311v-62.933h-378.311v62.933zM129.778 255.644h378.311v-62.933h-378.311v62.934zM129.778 129.422h378.311v-62.933h-378.311v62.933z" horiz-adv-x="520" />
<glyph unicode="&#x61;" d="M472.139 260.021h-432.278c-19.897 0-36.021-16.124-36.021-36.021s16.124-36.021 36.021-36.021h432.277c19.897 0 36.021 16.124 36.021 36.021s-16.123 36.021-36.020 36.021zM39.861 332.068h432.277c19.897 0 36.021 16.128 36.021 36.025s-16.124 36.021-36.021 36.021h-432.277c-19.897 0-36.021-16.124-36.021-36.021s16.124-36.025 36.021-36.025zM472.139 115.929h-432.278c-19.897 0-36.021-16.124-36.021-36.021s16.124-36.025 36.021-36.025h432.277c19.897 0 36.021 16.128 36.021 36.025s-16.123 36.021-36.020 36.021z" />
<glyph unicode="&#x62;" d="M3.911 404.978h504.178v-71.822h-504.178v71.822zM3.911 258.845h504.178v-71.822h-504.178v71.822zM3.911 114.844h504.178v-71.822h-504.178v71.822z" />
<glyph unicode="&#x63;" d="M457.728 425.728h-403.456c-27.737 0-50.432-22.695-50.432-50.436v-302.592c0-27.74 22.695-50.436 50.432-50.436h403.456c27.737 0 50.432 22.695 50.432 50.436v302.596c0 27.74-22.695 50.432-50.432 50.432zM457.728 72.704h-403.456v302.592h403.456v-302.592zM230.784 171.044h-126.080v-45.39h126.080v45.39zM230.784 246.695h-126.080v-45.39h126.080v45.39zM230.784 322.343h-126.080v-45.39h126.080v45.39zM404.775 160.96c0 0-42.866 11.218-42.866 33.234 0 20.981 27.737 29.81 27.737 72.676 0 34.812-10.578 55.477-45.39 55.477s-45.39-20.665-45.39-55.477c0-42.869 27.73-51.694 27.73-72.676 0-22.012-42.862-33.234-42.862-33.234-2.521 0-2.521-35.303-2.521-35.303h126.080c0.003 0 0.003 35.303-2.518 35.303z" />
<glyph unicode="&#x64;" d="M3.84 349.593v-365.131h396.423v365.131h-396.423zM362.037 77.049h-319.971v237.333h319.972l-0.001-237.333zM339.221 93.973h-274.339c0 0 61.436 20.732 78.443 30.606 16.999 9.874 30.699 42.45 40.988 52.74 10.293 10.293 83.417 12.548 94.222 23.349 10.809 10.805 60.69 96.789 60.686 96.789v-203.484zM70.869 258.972c0 16.535 13.403 29.938 29.938 29.938s29.938-13.404 29.938-29.938c0 0 0 0 0 0 0-16.534-13.403-29.938-29.938-29.938s-29.938 13.404-29.938 29.938c0 0 0 0 0 0zM205.479 374.219c-15.605 5.468-32.686-2.756-38.151-18.357-0.725-2.073-1.198-4.171-1.454-6.268h59.403c-1.352 10.943-8.687 20.728-19.798 24.625zM400.263 24.487l107.897 307.989-374.133 131.062-39.915-113.945h40.501l23.851 68.078 194.332-68.078h47.467v-16.629l60.178-21.081-60.178-171.772v-115.624zM400.263 209.109l33.052 94.343c0 0-15.118-12.942-33.052-27.84v-66.503z" />
<glyph unicode="&#x65;" d="M3.84 413.12v-378.24h504.32v378.24h-504.32zM476.64 66.4h-31.516l-94.564 141.838-63.040-47.278-126.080 157.604-94.56-252.164h-31.52v315.2h441.28v-315.2zM350.56 302.802c0-26.116 21.17-47.282 47.282-47.282s47.282 21.166 47.282 47.282c0 26.112-21.17 47.278-47.282 47.278s-47.282-21.166-47.282-47.278z" />
<glyph unicode="&#x66;" d="M478.471 402.13h-444.942c-16.661 0-29.689-7.957-29.689-29.717v-296.853c0-16.683 10.133-29.689 29.689-29.689l444.942-0.001c19.221 0 29.689 9.696 29.689 29.689v296.853c0 19.279-12.946 29.718-29.689 29.718zM462.468 91.012h-415.343v266.904h415.342l0.001-266.904zM91.975 134.937l123.854 116.75 55.666-52.132 87.673 115.332 83.125-179.954-350.318 0.004zM153.266 313.788c16.932 0 30.645-13.685 30.645-30.617s-13.714-30.613-30.645-30.613c-16.875 0-30.613 13.682-30.613 30.613-0.001 16.932 13.738 30.617 30.613 30.617z" />
<glyph unicode="&#x67;" d="M135.883 137.163h-64.064l-2.105-2.087v-64.971h-65.874v-99.2h99.705l193.515 193.518c55.812-18.514 119.712-5.614 164.092 38.78 62.67 62.638 62.67 164.256 0.032 226.894-62.67 62.67-164.252 62.67-226.923 0-44.416-44.387-57.297-117.624-38.78-173.418l-59.047-47.634-0.551-71.882zM342.674 311.616c-19.328 19.356-19.328 50.692 0 70.020 19.328 19.342 50.695 19.342 70.020 0 19.356-19.328 19.356-50.663 0-70.020-19.325-19.328-50.696-19.328-70.020 0z" />
<glyph unicode="&#x68;" d="M350.56 476.16c-87.036 0-157.6-70.56-157.6-157.6 0-9.863 0.914-19.513 2.649-28.875l-191.769-191.765v-94.56c0-17.408 14.112-31.52 31.52-31.52h31.52v31.52h63.040v63.036h63.040v63.040h63.040l40.9 40.903c16.75-6.069 34.816-9.383 53.66-9.383 87.040 0 157.6 70.56 157.6 157.604 0 87.040-70.56 157.6-157.6 157.6zM397.778 318.5c-26.112 0-47.278 21.166-47.278 47.278s21.166 47.278 47.278 47.278 47.282-21.166 47.282-47.278-21.17-47.278-47.282-47.278z" />
<glyph unicode="&#x69;" d="M375.772 425.988c55.62 0 100.868-45.255 100.868-100.878 0-17.422-2.667-33.369-8.156-48.75-5.028-14.098-12.466-27.783-22.738-41.835-20.647-28.256-50.638-54.841-82.393-82.99-34.802-30.855-73.305-64.985-107.861-108.288-34.724 42.048-72.238 74.908-106.155 104.626-33.461 29.311-62.357 54.623-82.99 83.114-10.272 14.176-17.71 28.146-22.748 42.695-5.543 16.011-8.235 32.828-8.235 51.424 0 55.627 45.252 100.878 100.868 100.878 40.103 0 75.413-36.302 91.253-70.034l28.544-60.786 28.523 60.796c15.818 33.729 51.114 70.028 91.22 70.028zM375.772 457.508c-53.006 0-98.628-43.118-119.762-88.156-21.144 45.034-66.769 88.156-119.782 88.156-73.078 0-132.388-59.318-132.388-132.399 0-148.661 149.966-187.641 252.171-334.613 96.608 146.062 252.149 190.702 252.149 334.613 0 73.081-59.314 132.399-132.388 132.399v0z" />
<glyph unicode="&#x6a;" d="M375.772 457.508c-53.006 0-98.628-43.118-119.762-88.156-21.144 45.034-66.769 88.156-119.782 88.156-73.078 0-132.388-59.318-132.388-132.399 0-148.661 149.966-187.641 252.171-334.613 96.608 146.062 252.149 190.702 252.149 334.613 0 73.081-59.314 132.399-132.388 132.399z" />
<glyph unicode="&#x6b;" d="M493.76 373.060c-319.641-127.958-190.172 216.423-438.087 35.136l-51.833-18.617 102.688-403.726h56.562l-50.297 197.742c221.184 185.415 131.637-202.034 393.28 178.123 6.073 8.817-2.052 15.445-12.313 11.342z" />
<glyph unicode="&#x6c;" d="M6.222 473.778v-499.556h499.556v499.556h-499.556zM372.306 322.802l-115.182-112.029-113.832 112.029h229.014zM123.655 302.094l73.085-73.33-73.085-81.411v154.741zM141.326 125.198l73.017 86.592 41.895-40.149 39.886 38.617 76.153-85.063h-230.951zM388.288 150.108l-72.028 78.656 72.085 73.397-0.057-152.053z" />
<glyph unicode="&#x6d;" d="M421.28 473.483h-330.56c-46.311 0-84.203-37.888-84.203-84.203v-330.564c0-46.308 37.888-84.203 84.203-84.203h330.564c46.308 0 84.203 37.892 84.203 84.203l-0.001 330.564c-0.003 46.315-37.895 84.203-84.206 84.203zM372.171 323.172l-115.047-111.89-113.696 111.89h228.743zM123.815 302.489l72.999-73.241-72.999-81.316v154.557zM141.461 125.803l72.932 86.489 41.842-40.1 39.847 38.571 76.060-84.96h-230.681zM388.128 150.684l-71.932 78.564 71.993 73.308-0.061-151.872z" />
<glyph unicode="&#x6e;" d="M486.229 321.369c-12.946 30.29-30.738 56.75-53.436 79.388-22.763 22.638-49.227 40.43-79.456 53.436-30.158 13.074-62.61 19.577-97.177 19.577-34.624 0-67.083-6.507-97.369-19.577-30.354-13.010-56.814-30.802-79.388-53.436-22.638-22.638-40.43-49.099-53.436-79.388-13.075-30.35-19.581-62.805-19.581-97.369 0-34.624 6.507-67.079 19.577-97.372 13.010-30.35 30.798-56.814 53.436-79.385 22.571-22.638 49.035-40.427 79.388-53.5 30.29-13.010 62.745-19.513 97.369-19.513 34.567 0 67.019 6.503 97.177 19.513 30.229 13.074 56.69 30.862 79.456 53.5 22.702 22.574 40.494 49.035 53.436 79.385 12.875 30.293 19.381 62.745 19.381 97.372 0.005 34.564-6.502 67.019-19.377 97.369zM372.793 322.311l-115.182-112.021-113.831 112.021h229.013zM124.146 301.607l73.084-73.33-73.084-81.408v154.738zM141.813 124.711l73.017 86.596 41.892-40.149 39.893 38.613 76.149-85.060h-230.951zM388.772 149.621l-72.022 78.656 72.075 73.397-0.053-152.053z" />
<glyph unicode="&#x6f;" d="M37.508 49.362h440.043l-145.096 150.35-76.003-68.26-79.819 70.966-139.125-153.056zM3.84 88.53v273.504l139.25-129.611-139.25-143.893zM41.259 398.638l216.885-198.005 219.467 198.005h-436.352zM508.046 93.394l0.114 268.768-137.333-129.735 137.219-139.033z" />
<glyph unicode="&#x70;" d="M508.16 387.257h-504.32l252.036-220.519 252.284 220.519zM255.78 128.882l-251.3 214.926v-283.065h502.699v280.907l-251.399-212.768z" />
<glyph unicode="&#x71;" d="M445.12 129.436v-63.036h-378.24v63.036h-63.040v-126.076h504.32v126.076h-63.040zM129.92 255.52h94.56v-157.6h63.040v157.6h94.56l-126.080 189.12-126.080-189.12z" />
<glyph unicode="&#x72;" d="M445.12 129.436v-63.036h-378.24v63.036h-63.040v-126.076h504.32v126.076h-63.040zM382.080 287.036h-94.56v157.604h-63.040v-157.6h-94.56l126.080-189.12 126.080 189.116z" />
<glyph unicode="&#x73;" d="M497.557 203.2c2.894 0 5.355-0.999 7.477-3.015 2.126-2.005 3.129-4.519 3.129-7.644v-168.036c0-7.083-3.52-10.66-10.606-10.66h-483.054c-7.090 0-10.663 3.577-10.663 10.66v168.036c0 2.901 1.006 5.408 3.125 7.534 2.123 2.062 4.636 3.125 7.538 3.125h62.688c2.901 0 5.415-0.999 7.481-3.015 2.119-2.012 3.186-4.519 3.186-7.644v-94.681h336.341v94.68c0 2.901 1.006 5.408 3.129 7.534 2.123 2.062 4.576 3.125 7.534 3.125l62.695 0.001zM102.873 261.483c-4.132 4.188-5.696 7.819-4.466 10.83 1.173 3.022 4.804 4.523 10.773 4.523h84.014l0.001 136.551c0 5.639 2.009 10.549 5.92 14.624 3.908 4.132 8.875 6.144 14.905 6.144h84.018c6.023 0 11.051-2.009 15.186-6.144 4.128-4.075 6.14-8.985 6.14-14.624v-136.551h84.018c5.639 0 9.042-1.504 10.105-4.523 1.109-3.012-0.338-6.642-4.359-10.83l-137.881-138.443c-4.245-4.188-9.266-6.258-15.243-6.194-5.92 0.103-10.997 2.172-15.186 6.194l-137.945 138.443z" />
<glyph unicode="&#x74;" d="M256 476.16c-139.257 0-252.16-112.903-252.16-252.16s112.903-252.16 252.16-252.16c139.257 0 252.16 112.903 252.16 252.16s-112.903 252.16-252.16 252.16zM161.44 97.92v252.16l252.284-126.080-252.284-126.080z" />
<glyph unicode="&#x75;" d="M320.804 110.581c-11.022-6.14-19.876-2.030-32.274 4.505-11.289 8.619-44.722 34.905-80.007 70.123-25.764 32.587-45.472 63.324-54.546 78.105-0.615 1.632-0.928 2.592-0.928 2.592-5.316 13.273-8.64 22.578-1.305 33.017 6.752 9.582 9.358 12.199 17.966 19.808l-86.474 128.167c-10.446-7.612-26.613-24.729-39.904-43.712-12.348-18.044-22.805-38.009-25.657-52.26 15.065-54.29 51.474-155.527 118.773-227.851l-0.021-0.306c64.743-79.812 167.612-129.458 222.19-150.926 14.457 1.365 35.399 9.696 54.62 20.096 20.292 11.243 38.976 25.557 47.605 35.15l-118.481 99.318c-8.469-7.794-11.325-10.101-21.557-15.826zM206.364 349.433c7.132 5.223 5.234 14.72 1.899 19.94l-65.582 100.383c-4.281 5.212-13.195 7.943-20.935 5.497l-27.022-18.105 86.713-127.929 24.927 20.214zM489.397 84.281l-93.059 75.637c-4.853 3.861-14.098 6.738-20.018 0.188l-22.702-22.706 118.247-99.499 20.818 24.974c3.239 7.45 1.447 16.606-3.286 21.406z" />
<glyph unicode="&#x76;" d="M256.334 34.542c-27.239 0-52.725 10.709-71.762 30.162l-2.293 2.332h-142.571c-19.598 0-35.538 15.947-35.538 35.534l0.001 51.044c0 140.743 113.124 255.25 252.16 255.25 139.040 0 252.16-114.507 252.16-255.26v-51.051c0-19.588-15.94-35.524-35.527-35.524h-142.553l-2.304-2.332c-19.055-19.445-44.537-30.155-71.773-30.155zM195.964 94.77c13.433-20.16 36.203-32.508 60.473-32.508s47.029 12.348 60.462 32.508h163.918l-0.043 58.834c0 125.458-100.69 227.541-224.441 227.541-123.748 0-224.43-102.073-224.43-227.541v-58.834h164.061zM256.69 186.83l-95.115 148 62.276-162.983c-6.507-7.815-10.304-17.931-9.753-28.875 1.156-23.15 20.878-40.96 44.018-39.79 23.143 1.152 40.964 20.864 39.787 44.021-1.128 22.184-19.336 39.268-41.213 39.627zM421.621 164.932c7.929 0 14.343-6.421 14.343-14.329 0-7.929-6.414-14.34-14.343-14.34-7.918 0-14.329 6.411-14.329 14.34 0 7.907 6.411 14.329 14.329 14.329zM89.323 164.932c7.918 0 14.343-6.421 14.343-14.329 0-7.929-6.425-14.34-14.343-14.34s-14.343 6.411-14.343 14.34c0 7.907 6.424 14.329 14.343 14.329zM405.468 236.548c7.925 0 14.34-6.425 14.34-14.34 0-7.922-6.414-14.347-14.34-14.347s-14.332 6.428-14.332 14.347c0 7.918 6.411 14.34 14.332 14.34zM104.619 237.429c7.918 0 14.34-6.425 14.34-14.34 0-7.922-6.421-14.343-14.34-14.343-7.922 0-14.343 6.421-14.343 14.343 0 7.915 6.421 14.34 14.343 14.34zM363.979 294.265c7.918 0 14.329-6.418 14.329-14.343 0-7.918-6.414-14.336-14.329-14.336-7.925 0-14.34 6.418-14.34 14.336 0 7.925 6.414 14.343 14.34 14.343zM146.546 294.254c7.922 0 14.343-6.418 14.343-14.343 0-7.922-6.421-14.34-14.343-14.34s-14.343 6.418-14.343 14.34c0 7.925 6.425 14.343 14.343 14.343zM297.924 334.322c7.929 0 14.35-6.425 14.35-14.347 0-7.929-6.421-14.354-14.35-14.354-7.918 0-14.343 6.421-14.343 14.354-0.001 7.925 6.424 14.347 14.343 14.347zM213.657 333.611c7.918 0 14.332-6.418 14.332-14.343 0-7.918-6.414-14.336-14.332-14.336-7.929 0-14.343 6.418-14.343 14.336 0 7.925 6.414 14.343 14.343 14.343z" />
<glyph unicode="&#x77;" d="M256.636 408.384c-138.841 0-251.812-114.311-251.812-254.816v-49.451c0-23.132 18.82-41.97 41.97-41.97h134.926c19.033-19.438 45.568-31.474 74.916-31.474 29.337 0 55.876 12.036 74.916 31.474h134.919c23.161 0 41.97 18.837 41.97 41.97v49.451c0 140.505-112.957 254.816-251.805 254.816zM210.212 370.14c13.515 0 24.476-10.958 24.476-24.476s-10.962-24.48-24.476-24.48c-13.522 0-24.48 10.962-24.48 24.48 0 13.522 10.958 24.476 24.48 24.476zM56.846 110.884c-13.522 0-24.48 10.965-24.48 24.48s10.958 24.48 24.48 24.48c13.518 0 24.476-10.965 24.476-24.48s-10.954-24.48-24.476-24.48zM72.636 202.891c-13.518 0-24.476 10.965-24.476 24.484 0 13.522 10.958 24.476 24.476 24.476s24.48-10.958 24.48-24.476c-0.003-13.519-10.961-24.484-24.48-24.484zM133.106 272.117c-13.522 0-24.476 10.958-24.476 24.476 0 13.515 10.958 24.48 24.476 24.48s24.476-10.962 24.476-24.48c0-13.517-10.958-24.476-24.476-24.476zM256.636 93.628c-23.179 0-41.97 18.791-41.97 41.966 0 9.109 2.933 17.518 7.861 24.395l-52.153 169.422 83.989-151.964c0.757 0.043 1.504 0.114 2.272 0.114 23.172 0 41.963-18.788 41.963-41.97 0.001-23.171-18.79-41.963-41.962-41.963zM302.183 322.059c-13.504 0-24.469 10.958-24.469 24.476s10.965 24.48 24.469 24.48c13.529 0 24.491-10.962 24.491-24.48 0-13.522-10.962-24.476-24.491-24.476zM384.544 272.128c-13.525 0-24.48 10.958-24.48 24.48 0 13.515 10.955 24.476 24.48 24.476s24.476-10.962 24.476-24.476c0-13.522-10.951-24.48-24.476-24.48zM416.164 227.378c0 13.522 10.965 24.476 24.491 24.476 13.515 0 24.469-10.958 24.469-24.476s-10.955-24.484-24.469-24.484c-13.526-0.003-24.491 10.962-24.491 24.484zM456.43 110.884c-13.515 0-24.469 10.965-24.469 24.48s10.955 24.48 24.469 24.48c13.529 0 24.491-10.965 24.491-24.48s-10.962-24.48-24.491-24.48z" />
<glyph unicode="&#x78;" d="M377.6 386.133h-243.2c-26.869 0-40.53-8.267-40.53-35.129v-254.005c0-26.866 13.664-35.129 40.53-35.129h243.2c26.862 0 40.53 8.263 40.53 35.129v254.005c0.003 26.863-13.668 35.129-40.53 35.129z" />
<glyph unicode="&#x79;" d="M3.84 224.004c0-8.007 8-13.735 8-13.735l213.835-141.845c16.409-10.944 29.863-2.894 29.863 17.902v275.352c0 20.786-13.458 28.843-29.863 17.899l-213.835-141.853c0 0-8-5.72-8-13.72zM263.9 224.004c0-8.007 8.004-13.735 8.004-13.735l206.404-141.845c16.409-10.944 29.852-2.894 29.852 17.902v275.352c0 20.786-13.444 28.843-29.852 17.899l-206.404-141.853c0 0-8.004-5.72-8.004-13.72z" />
<glyph unicode="&#x7a;" d="M384.562 238.044l-234.397 145.216c-17.081 11.207-31.058 2.962-31.058-18.322v-281.888c0-21.266 13.977-29.518 31.058-18.315l234.396 145.209c0 0 8.331 5.856 8.331 14.059 0 8.182-8.33 14.041-8.33 14.041z" />
<glyph unicode="&#x7b;" d="M338.133 388.267c-23.332 0-42.24-7.179-42.24-30.507v-267.52c0-23.332 18.905-30.507 42.24-30.507 23.328 0 42.244 7.175 42.244 30.507v267.52c-0.004 23.328-18.919 30.507-42.244 30.507zM173.863 388.267c-23.335 0-42.24-7.179-42.24-30.507v-267.52c0-23.332 18.901-30.507 42.24-30.507 23.328 0 42.24 7.175 42.24 30.507v267.52c0 23.328-18.912 30.507-42.24 30.507z" />
<glyph unicode="&#x7c;" d="M508.16 223.996c0 8.007-8 13.735-8 13.735l-213.838 141.846c-16.409 10.944-29.863 2.894-29.863-17.902l0.004-275.353c0-20.786 13.454-28.843 29.863-17.895l213.834 141.849c0 0 8 5.717 8 13.72zM248.1 223.996c0 8.007-8.004 13.735-8.004 13.735l-206.4 141.846c-16.412 10.944-29.856 2.894-29.856-17.902v-275.353c0-20.786 13.444-28.843 29.852-17.895l206.404 141.849c0 0 8.004 5.717 8.004 13.72z" />
<glyph unicode="&#x7d;" d="M512.007 377.529l-102.471 102.471-153.536-153.504-153.504 153.504-102.503-102.471 153.536-153.522-153.536-153.522 102.503-102.485 153.504 153.522 153.536-153.522 102.471 102.485-153.504 153.522 153.504 153.522z" />
<glyph unicode="&#x7e;" d="M437.205 405.035c24.96-24.967 43.655-53.198 56.071-84.569 12.352-31.435 18.564-63.524 18.564-96.462 0-32.871-6.212-65.028-18.564-96.462-12.412-31.378-31.108-59.541-56.071-84.576-25.031-24.964-53.273-43.719-84.775-56.203-31.498-12.491-63.655-18.763-96.394-18.763-32.811 0-64.964 6.279-96.469 18.763-31.499 12.484-59.733 31.239-84.764 56.203-24.967 25.035-43.659 53.198-56.075 84.576-12.356 31.428-18.564 63.591-18.564 96.462 0 32.939 6.276 65.092 18.752 96.594 12.487 31.499 31.111 59.602 55.883 84.437 25.035 24.967 53.266 43.723 84.768 56.21 31.501 12.543 63.658 18.755 96.469 18.755 32.75 0 64.896-6.212 96.395-18.756 31.498-12.487 59.743-31.242 84.774-56.209zM385.899 301.511c4.896 4.971 4.896 9.938 0 15.1l-37.455 36.793c-5.358 5.358-10.389 5.358-15.097 0l-77.834-78.165-71.108 70.845c-2.158 2.094-4.58 3.2-7.385 3.2-2.748 0-5.362-1.109-7.716-3.2l-35.224-36.207c-5.362-4.967-5.362-9.931 0-15.036l70.19-70.187-77.511-78.162c-2.158-2.162-3.271-4.583-3.271-7.392 0-2.805 1.109-5.358 3.271-7.637l36.797-37.195c2.151-2.158 4.64-3.264 7.513-3.403 2.94-0.060 5.422 1.049 7.58 3.403l78.162 77.845 70.133-70.848c2.151-2.091 4.636-3.136 7.58-3.136 2.873 0 5.362 1.045 7.513 3.136l36.203 36.213c4.914 4.967 4.914 9.927 0 15.093l-71.157 70.121 78.816 78.819z" />
<glyph unicode="&#xe000;" d="M510.906 341.514l-78.438 78.45-235.41-235.398-117.502 117.513-78.462-78.45 196.346-195.593 313.466 313.478z" />
<glyph unicode="&#xe001;" d="M6.414 475.915v-500.256h500.256v500.256h-500.256zM214.332 89.003l-126.627 126.627 52.761 52.761 73.863-73.863 158.286 158.283 52.761-52.761-211.044-211.047z" />
<glyph unicode="&#xe002;" d="M422.937 474.674h-329.778c-46.201 0-84-37.799-84-84v-329.778c0-46.201 37.799-84 84-84h329.778c46.197 0 84 37.799 84 84v329.778c0 46.201-37.803 84-84 84zM216.046 91.627l-125.998 125.998 52.501 52.501 73.497-73.5 157.5 157.5 52.501-52.501-210.001-209.998z" />
<glyph unicode="&#xe003;" d="M485.941 322.084c-12.921 30.233-30.677 56.647-53.337 79.246-22.727 22.599-49.134 40.356-79.31 53.34-30.105 13.045-62.503 19.541-97.003 19.541-34.564 0-66.962-6.492-97.195-19.541-30.297-12.985-56.711-30.741-79.243-53.337-22.599-22.596-40.356-49.010-53.34-79.246-13.041-30.3-19.537-62.695-19.537-97.198 0-34.56 6.492-66.958 19.541-97.191 12.985-30.297 30.741-56.711 53.34-79.239 22.532-22.599 48.946-40.359 79.243-53.408 30.233-12.985 62.631-19.477 97.195-19.477 34.5 0 66.898 6.489 97.003 19.477 30.172 13.049 56.583 30.805 79.31 53.408 22.66 22.528 40.416 48.946 53.337 79.239 12.857 30.236 19.349 62.631 19.349 97.191-0.003 34.503-6.496 66.898-19.353 97.195zM214.062 90.5l-126.222 126.219 52.594 52.594 73.628-73.628 157.778 157.778 52.59-52.594-210.368-210.369z" />
<glyph unicode="&#xe004;" d="M287.52 476.16l-283.68-283.68 220.64-220.64 283.68 283.68v220.64h-220.64zM413.6 335.897c-25.244 0-45.703 20.462-45.703 45.703s20.462 45.703 45.703 45.703c25.241 0 45.703-20.462 45.703-45.703 0.004-25.241-20.462-45.703-45.703-45.703z" />
<glyph unicode="&#xe005;" d="M492.871 469.095l-153.639 0.181c0 0-25.988 3.986-40.658-10.699l-281.258-276.088c0 0-31.022-28.256 1.063-60.345l131.545-131.559c0 0 28.412-28.409 57.749 0.928l279.147 279.129c0 0 21.262 25.678 21.262 45.845l0.075 139.186c0.003 0.003-2.898 14.795-15.286 13.422zM457.511 374.148c-12.288-12.292-32.196-12.292-44.469 0-12.277 12.26-12.277 32.178 0 44.473 12.274 12.245 32.178 12.245 44.469 0 12.277-12.296 12.277-32.214 0-44.473z" />
<glyph unicode="&#xe006;" d="M256 274.436c-41.785 0-75.648-33.881-75.648-75.648 0-41.785 33.863-75.648 75.648-75.648 41.771 0 75.644 33.863 75.644 75.648 0.004 41.763-33.873 75.648-75.644 75.648zM457.728 350.080h-60.519c-8.324 0-17.287 6.457-19.918 14.35l-15.641 46.944c-2.638 7.897-11.595 14.354-19.915 14.354h-171.47c-8.324 0-17.287-6.457-19.918-14.354l-15.641-46.944c-2.638-7.893-11.595-14.35-19.918-14.35h-60.516c-27.737 0-50.432-22.695-50.432-50.432v-226.944c0-27.74 22.695-50.436 50.432-50.436h403.456c27.737 0 50.432 22.695 50.432 50.436v226.944c0 27.737-22.695 50.432-50.432 50.432zM256 72.704c-69.632 0-126.080 56.448-126.080 126.080 0 69.628 56.448 126.080 126.080 126.080 69.618 0 126.080-56.452 126.080-126.080 0-69.632-56.462-126.080-126.080-126.080zM440.075 264.38c-9.746 0-17.65 7.897-17.65 17.65 0 9.746 7.904 17.653 17.65 17.653 9.753 0 17.653-7.908 17.653-17.653 0-9.753-7.9-17.65-17.653-17.65z" />
<glyph unicode="&#xe007;" d="M155.538 208.238c0-55.481 44.978-100.462 100.462-100.462 55.481 0 100.462 44.978 100.462 100.462s-44.978 100.462-100.462 100.462c-55.484 0.004-100.462-44.977-100.462-100.462zM476.64 350.080h-110.318c-7.879 31.52-15.762 63.040-47.278 63.040h-126.084c-31.52 0-39.399-31.52-47.278-63.040h-110.322c-17.333 0-31.52-14.183-31.52-31.52v-252.16c0-17.337 14.183-31.516 31.52-31.516h441.28c17.337 0 31.52 14.18 31.52 31.516v252.16c0 17.337-14.183 31.52-31.52 31.52zM256 66.4c-78.336 0-141.842 63.502-141.842 141.842s63.506 141.838 141.842 141.838c78.336 0 141.842-63.502 141.842-141.842s-63.506-141.838-141.842-141.838zM476.64 287.040h-63.036v31.52h63.036v-31.52z" />
<glyph unicode="&#xe008;" d="M285.866 224l206.222-206.222-29.866-29.866-206.222 206.222-206.222-206.222-29.866 29.866 206.222 206.222-206.222 206.222 29.867 29.866 206.222-206.222 206.222 206.222 29.866-29.867-206.222-206.222z" />
<glyph unicode="&#xe009;" d="M503.822 203.022h-226.845v-226.844h-41.956v226.845h-226.845v41.956h226.845v226.845h42.311v-226.845h226.845v-41.956z" />
<glyph unicode="&#xe00a;" d="M399.481 289.091v-134.531c0-4.565-3.723-8.281-8.277-8.281h-268.964c-4.566 0-8.274 3.716-8.274 8.281v134.531c0 4.565 3.709 8.281 8.274 8.281h268.964c4.555-0.003 8.277-3.715 8.277-8.281zM496.526 329.97c0-6.418 5.209-11.63 11.63-11.63v-11.666c-6.425 0-11.63-5.202-11.63-11.63 0-6.421 5.209-11.634 11.63-11.634v-11.278c-0.26 0-0.519 0.035-0.786 0.035-26.873 0-48.647-21.778-48.647-48.654 0-26.858 21.774-48.647 48.647-48.647 0.267 0 0.522 0.032 0.786 0.043v-13.618c-6.425 0-11.63-5.198-11.63-11.63 0-6.418 5.209-11.63 11.63-11.63v-11.669c-6.425 0-11.63-5.198-11.63-11.623s5.209-11.634 11.63-11.634v-13.344h-504.317v13.404c0.163-0.010 0.32-0.060 0.484-0.060 6.425 0 11.63 5.212 11.63 11.634s-5.209 11.623-11.63 11.623c-0.163 0-0.32-0.032-0.483-0.043v11.769c0.164-0.010 0.32-0.057 0.483-0.057 6.425 0 11.63 5.216 11.63 11.63 0 6.432-5.209 11.63-11.63 11.63-0.163 0-0.32-0.032-0.483-0.043v13.65c0.199 0 0.391-0.032 0.594-0.032 26.869 0 48.647 21.788 48.647 48.647 0 26.876-21.778 48.654-48.647 48.654-0.202 0-0.394-0.025-0.594-0.025v11.324c0.164-0.007 0.32-0.057 0.483-0.057 6.425 0 11.63 5.213 11.63 11.634 0 6.428-5.209 11.63-11.63 11.63-0.163 0-0.32-0.036-0.483-0.046v11.769c0.164-0.010 0.32-0.057 0.483-0.057 6.425 0 11.63 5.213 11.63 11.63 0 6.429-5.209 11.63-11.63 11.63-0.163 0-0.32-0.032-0.483-0.042v16.683h504.32v-16.64c-6.425 0-11.634-5.205-11.634-11.63zM422.738 289.091c0 17.422-14.119 31.545-31.534 31.545h-268.964c-17.418 0-31.538-14.119-31.538-31.545v-134.531c0-17.422 14.119-31.541 31.538-31.541h268.964c17.415 0 31.534 14.119 31.534 31.541v134.531z" />
<glyph unicode="&#xe00b;" d="M501.856 142.048h6.3v-12.608c-3.769 0-7.918 0-12.608 0-13.927 0-25.216-11.293-25.216-25.219 0-4.615 0-8.889 0-12.608h-428.668c0 3.719 0 7.993 0 12.608 0 13.927-11.289 25.219-25.216 25.219-4.025 0-8.398 0-12.608 0v12.608h6.304c3.478 0 6.304 2.83 6.304 6.3 0 3.485-2.826 6.304-6.304 6.304h-6.304v12.608h6.304c3.478 0 6.304 2.834 6.304 6.304 0 3.481-2.826 6.3-6.304 6.3h-6.304v12.608h6.304c3.478 0 6.304 2.834 6.304 6.304 0 3.481-2.826 6.3-6.304 6.3h-6.304v12.608h6.304c3.478 0 6.304 2.827 6.304 6.304 0 3.484-2.826 6.304-6.304 6.304h-6.304v12.608h6.304c3.478 0 6.304 2.827 6.304 6.3 0 3.484-2.826 6.304-6.304 6.304h-6.304v12.608h6.304c3.478 0 6.304 2.827 6.304 6.304 0 3.481-2.826 6.301-6.304 6.301h-6.304v12.608h6.304c3.478 0 6.304 2.827 6.304 6.304 0 3.481-2.826 6.3-6.304 6.3h-6.304v12.611c3.762 0 7.911 0 12.608 0 13.927 0 25.216 11.289 25.216 25.216 0 4.615 0 8.889 0 12.608h428.672c0-3.719 0-7.993 0-12.608 0-13.927 11.289-25.216 25.216-25.216 4.69 0 8.839 0 12.608 0v-12.611h-6.3c-3.485 0-6.304-2.82-6.304-6.3s2.82-6.304 6.304-6.304h6.3v-12.608h-6.3c-3.485 0-6.304-2.82-6.304-6.301s2.82-6.304 6.304-6.304h6.3v-12.608h-6.3c-3.485 0-6.304-2.82-6.304-6.304 0-3.477 2.82-6.3 6.304-6.3h6.3v-12.608h-6.3c-3.485 0-6.304-2.82-6.304-6.304 0-3.481 2.82-6.304 6.304-6.304h6.3v-12.608h-6.3c-3.485 0-6.304-2.82-6.304-6.3 0-3.474 2.82-6.304 6.304-6.304h6.3v-12.608h-6.3c-3.485 0-6.304-2.82-6.304-6.3 0-3.474 2.82-6.304 6.304-6.304h6.3v-12.608h-6.3c-3.485 0-6.304-2.82-6.304-6.304-0.003-3.47 2.816-6.3 6.3-6.3zM457.728 293.344c0 13.927-11.293 25.219-25.219 25.219h-353.021c-13.927 0-25.216-11.292-25.216-25.219v-138.688c0-13.927 11.289-25.216 25.216-25.216h353.024c13.927 0 25.219 11.289 25.219 25.216v138.688zM432.512 142.048h-353.024c-6.969 0-12.608 5.639-12.608 12.608v138.688c0 6.965 5.639 12.608 12.608 12.608h353.024c6.969 0 12.611-5.643 12.611-12.608v-138.688c-0.003-6.969-5.642-12.608-12.611-12.608zM147.406 255.669h-50.090v-7.438h20.832v-55.754h8.374v55.755h20.882v7.438zM164.807 255.669h-8.37v-63.189h8.37v63.19zM189.92 236.732c1.326 3.925 3.616 7.054 6.876 9.383 3.264 2.333 7.321 3.495 12.171 3.495 4.224 0 7.73-1.046 10.514-3.147 2.787-2.101 4.917-5.447 6.379-10.052l8.224 1.938c-1.692 5.838-4.69 10.361-8.999 13.575-4.31 3.218-9.629 4.825-15.943 4.825-5.571 0-10.681-1.27-15.317-3.812-4.64-2.549-8.217-6.268-10.731-11.168s-3.776-10.645-3.776-17.226c0-6.034 1.113-11.68 3.342-16.95 2.23-5.248 5.476-9.269 9.738-12.043 4.267-2.77 9.806-4.163 16.615-4.163 6.574 0 12.142 1.799 16.697 5.415 4.554 3.598 7.705 8.839 9.454 15.702l-8.37 2.119c-1.145-5.334-3.342-9.334-6.589-12.032-3.246-2.709-7.21-4.064-11.893-4.064-3.851 0-7.417 0.985-10.724 2.979-3.306 1.984-5.738 4.974-7.303 8.988s-2.346 8.707-2.346 14.084c0.004 4.189 0.661 8.231 1.981 12.153zM298.404 255.669h-11.328l-31.37-31.274v31.274h-8.374v-63.189h8.374v21.916l10.368 10.016 22.482-31.932h11.033l-27.68 37.578 26.496 25.611zM356.075 199.918h-38.759v21.522h34.919v7.438h-34.919v19.357h37.28v7.438h-45.654v-63.189h47.132v7.435zM415.178 255.669h-50.087v-7.438h20.829v-55.754h8.373v55.755h20.882v7.438z" />
<glyph unicode="&#xe00c;" d="M256 476.089c-139.378 0-252.089-112.711-252.089-252.089s113.067-252.089 252.089-252.089c139.378 0 252.089 113.067 252.089 252.089 0 139.378-112.711 252.089-252.089 252.089zM415.644 158.222c-36.267-88.534-137.6-130.845-226.133-94.578 0 0-0.356 0-0.356 0l5.333 12.8c0 0 0.356 0 0.356 0 81.422-33.422 174.578 5.689 208 86.755l12.8-4.978zM370.489 176.711c-25.955-63.289-98.844-93.866-162.133-67.911 0 0-0.356 0-0.356 0l5.333 12.8c0 0 0.356 0 0.356 0 56.178-23.111 120.889 3.911 144 60.089l12.8-4.978zM234.667 224c0 11.733 9.6 21.334 21.333 21.334s21.334-9.6 21.334-21.334-9.6-21.334-21.334-21.334c-11.733 0-21.334 9.6-21.334 21.334zM64 303.644l-12.8 5.333c46.578 112 175.644 166.045 288.356 119.822l-5.334-13.155c-105.6 43.378-226.489-6.755-270.222-112zM95.289 290.489c36.622 87.822 137.6 129.778 225.778 93.511l-5.334-12.8c-80.711 33.422-173.867-4.978-207.289-85.689l-13.156 4.978zM140.8 272c26.311 62.933 98.844 92.8 161.778 66.844l-5.334-12.8c-56.178 23.111-120.178-3.555-143.644-59.378l-12.8 5.334zM171.378 19.2c0 0.356-0.356 0.356 0 0l4.978 13.156c0 0 0.356 0 0.356 0 105.6-43.378 227.2 7.111 270.578 113.067l12.8-5.334c-46.222-113.067-176-167.111-288.711-120.889z" />
<glyph unicode="&#xe00d;" d="M254.934 450.489l-249.244-249.6h75.022v-173.511l13.511-0.711c0.711 0 1.422 0 2.489 0h119.822v137.6h78.578v-137.6h135.822v174.222h75.022l-251.022 249.6zM406.045 225.778v-174.222h-85.689v137.955h-128.711v-137.6h-85.689v174.222h-40.178l189.155 189.511 190.933-189.511h-39.822z" />
<glyph unicode="&#xe00e;" d="M429.511 239.644l-182.756 13.867 156.445 217.956-320.711-263.111 182.755-13.866-156.445-217.956z" />
<glyph unicode="&#xe00f;" d="M255.982 476.153c-139.26 0-252.149-112.9-252.149-252.16 0-139.268 112.889-252.156 252.149-252.156 139.271 0 252.171 112.889 252.171 252.156s-112.9 252.16-252.171 252.16zM255.982 26.652c-108.981 0-197.33 88.352-197.33 197.34 0 108.992 88.348 197.344 197.33 197.344 109.006 0 197.355-88.352 197.355-197.344 0-108.988-88.352-197.34-197.355-197.34zM305.33 329.518h-98.67v-112.107l-61.672 0.001 111.004-104.423 111.008 104.423h-61.67v112.106z" />
<glyph unicode="&#xe016;" d="M6.222 473.778v-499.556h499.556v499.556h-499.556zM385.547 246.222l-45.732-64.903c0 0-13.255-55.097-19.819-66.297-6.524-11.15-14.898-24.473-19.797-30.343-6.62-7.819-16.843-15.776-53.252-12.725-33.678 2.823-44.736 16.981-52.228 24.892-8.075 8.516-21.095 31.182-30.439 44.729-1.276 3.797-12.306 24.939-17.259 48.071-4.252 19.979-8.117 34.884-9.76 38.674-4.071 9.39-8.789 20.402-3.563 24.843 5.227 4.441 9.116 4.857 20.309-5.739 11.172-10.546 15.079-28.405 15.545-30.162 1.756-6.571 4.462-12.028 9.34-22.528 2.432-5.23 6.34-6.987 12.494-9.159 7.008-2.457 15.356 30.254 13.323 37.653-2.037 7.356-16.373 116.58-16.373 116.58s-0.832 18.688 10.201 20.356c7.979 1.248 15.335-3.932 16.999-14.016 2.037-12.26 21.099-105.892 21.099-105.892l7.772 3.516 18.99 126.617c0 0 5.835 15.591 17.113 14.016 11.292-1.572 12.284-12.213 11.922-16.373-0.42-4.164-14.158-124.999-14.158-124.999l11.701-6.802 38.951 106.539c0 0 9.028 14.944 18.699 11.474 9.664-3.47 5.5-20.398 5.5-20.398l-36.371-115.94 8.772-8.508 49.106 57.362c0 0 7.495 7.634 14.18 2.13 7.213-5.967-3.265-22.668-3.265-22.668z" />
<glyph unicode="&#xe017;" d="M421.404 474.222h-331.253c-46.404 0-84.373-37.97-84.373-84.373v-331.25c0-46.411 37.97-84.373 84.373-84.373h331.25c46.411 0 84.373 37.966 84.373 84.373v331.25c0.004 46.403-37.962 84.373-84.37 84.373zM385.44 246.468l-45.767-64.964c0 0-13.269-55.147-19.844-66.354-6.532-11.161-14.912-24.494-19.815-30.372-6.624-7.822-16.857-15.787-53.298-12.732-33.707 2.823-44.775 16.992-52.277 24.914-8.078 8.519-21.113 31.204-30.468 44.768-1.273 3.797-12.316 24.964-17.269 48.11-4.26 20.004-8.128 34.912-9.771 38.709-4.075 9.401-8.8 20.42-3.566 24.868 5.23 4.444 9.12 4.86 20.324-5.742 11.186-10.556 15.097-28.434 15.559-30.187 1.76-6.581 4.469-12.043 9.355-22.553 2.428-5.234 6.343-6.994 12.501-9.166 7.019-2.457 15.374 30.279 13.333 37.692-2.037 7.36-16.388 116.679-16.388 116.679s-0.836 18.706 10.208 20.373c7.989 1.252 15.349-3.936 17.017-14.030 2.037-12.27 21.113-105.988 21.113-105.988l7.78 3.52 19.008 126.731c0 0 5.838 15.602 17.134 14.027 11.296-1.572 12.295-12.224 11.922-16.391-0.416-4.167-14.169-125.109-14.169-125.109l11.716-6.809 38.987 106.631c0 0 9.031 14.958 18.713 11.481 9.675-3.47 5.504-20.416 5.504-20.416l-36.395-116.028 8.779-8.519 49.148 57.411c0 0 7.502 7.641 14.19 2.13 7.221-5.97-3.264-22.684-3.264-22.684z" />
<glyph unicode="&#xe018;" d="M486.229 321.369c-12.946 30.29-30.738 56.75-53.436 79.388-22.763 22.638-49.227 40.43-79.456 53.436-30.158 13.074-62.61 19.577-97.177 19.577-34.624 0-67.083-6.507-97.369-19.577-30.354-13.010-56.814-30.798-79.388-53.436-22.638-22.638-40.43-49.099-53.436-79.388-13.075-30.35-19.581-62.805-19.581-97.369 0-34.624 6.507-67.079 19.577-97.372 13.010-30.35 30.798-56.814 53.436-79.385 22.571-22.638 49.035-40.427 79.388-53.5 30.29-13.010 62.745-19.513 97.369-19.513 34.567 0 67.019 6.503 97.177 19.513 30.229 13.074 56.69 30.862 79.456 53.5 22.702 22.574 40.494 49.035 53.436 79.385 12.875 30.293 19.381 62.745 19.381 97.372 0.005 34.564-6.502 67.019-19.377 97.369zM385.060 246.222l-45.728-64.903c0 0-13.255-55.097-19.822-66.297-6.521-11.15-14.894-24.473-19.797-30.343-6.62-7.819-16.839-15.776-53.252-12.725-33.678 2.823-44.736 16.981-52.228 24.892-8.075 8.516-21.095 31.182-30.443 44.729-1.273 3.797-12.302 24.939-17.255 48.071-4.252 19.979-8.117 34.884-9.764 38.674-4.068 9.39-8.786 20.402-3.559 24.843s9.113 4.857 20.309-5.739c11.172-10.546 15.079-28.405 15.545-30.162 1.756-6.571 4.462-12.028 9.34-22.528 2.432-5.23 6.34-6.987 12.494-9.159 7.008-2.457 15.356 30.254 13.323 37.653-2.037 7.356-16.373 116.58-16.373 116.58s-0.836 18.688 10.201 20.356c7.975 1.248 15.335-3.932 16.999-14.016 2.037-12.26 21.095-105.892 21.095-105.892l7.776 3.516 18.99 126.617c0 0 5.831 15.591 17.113 14.016 11.292-1.572 12.284-12.213 11.918-16.373-0.416-4.164-14.158-124.999-14.158-124.999l11.705-6.802 38.951 106.539c0 0 9.024 14.944 18.688 11.474 9.671-3.47 5.508-20.398 5.508-20.398l-36.369-115.94 8.768-8.508 49.106 57.362c0 0 7.492 7.634 14.183 2.13 7.21-5.967-3.264-22.668-3.264-22.668z" />
<glyph unicode="&#xe019;" d="M232.489-30.271c-54.913 4.602-72.94 27.684-85.16 40.582-13.162 13.879-34.396 50.84-49.632 72.939-2.074 6.186-20.064 40.656-28.135 78.371-6.94 32.586-13.238 56.875-15.916 63.061-6.638 15.312-14.332 33.264-5.809 40.506 8.524 7.24 14.86 7.92 33.114-9.354 18.216-17.199 24.59-46.314 25.344-49.18 2.866-10.713 7.279-19.613 15.237-36.734 3.96-8.523 10.334-11.391 20.366-14.936 11.427-3.998 25.042 49.33 21.724 61.398-3.319 11.994-26.702 190.084-26.702 190.084s-1.358 30.473 16.632 33.189c13.012 2.035 25.005-6.412 27.72-22.855 3.319-19.99 34.396-172.658 34.396-172.658l12.672 5.732 30.964 206.451c0 0 9.504 25.418 27.909 22.854s20.026-19.912 19.423-26.701c-0.679-6.789-23.081-203.811-23.081-203.811l19.084-11.088 63.512 173.713c0 0 14.708 24.365 30.474 18.707 15.765-5.656 8.976-33.264 8.976-33.264l-59.287-189.027 14.294-13.879 80.068 93.533c0 0 12.22 12.445 23.119 3.469 11.767-9.73-5.318-36.959-5.318-36.959l-74.562-105.828c0 0-21.611-89.838-32.322-108.092-10.635-18.178-24.288-39.902-32.283-49.48-10.788-12.747-27.457-25.722-86.821-20.743z" />
<glyph unicode="&#xe01a;" d="M472.139-28.16h-432.278c-19.893 0-36.021 16.128-36.021 36.021v378.24c0 19.893 16.128 36.025 36.021 36.025h36.025v-18.012c0-29.838 24.192-54.034 54.034-54.034s54.034 24.196 54.034 54.034v18.012h144.092v-18.012c0-29.838 24.203-54.034 54.034-54.034s54.034 24.196 54.034 54.034v18.012h36.025c19.893 0 36.021-16.132 36.021-36.025v-378.24c0-19.893-16.128-36.021-36.021-36.021zM472.139 296.046h-432.278v-288.185h432.277l0.001 288.185zM203.214 155.033c3.552 5.668 5.33 11.63 5.33 17.888 0 13.934-7.492 20.9-22.478 20.9-13.017 0-25.468-5.173-37.358-15.516v29.34c13.159 8.516 28.004 12.768 44.537 12.768 15.481 0 27.563-3.886 36.252-11.655 8.69-7.78 13.035-18.279 13.035-31.506 0-17.66-10.588-35.918-31.765-54.77l-31.132-27.648v-0.636h61.422v-27.652h-99.627v25.966l43.374 41.472c8.718 8.366 14.858 15.385 18.41 21.049zM325.109 94.93c4.747 3.655 7.125 8.761 7.125 15.303 0 6.756-2.94 11.957-8.814 15.623-5.874 3.655-13.945 5.486-24.217 5.486h-13.618v25.543h12.562c19.701 0 29.55 6.542 29.55 19.63 0 12.313-7.566 18.464-22.692 18.464-10.133 0-19.979-3.271-29.554-9.813v27.225c10.624 5.348 23.008 8.021 37.152 8.021 15.477 0 27.524-3.481 36.146-10.446 8.615-6.965 12.928-16.004 12.928-27.122 0-19.772-10.027-32.153-30.080-37.148v-0.523c10.695-1.34 19.14-5.227 25.33-11.662s9.287-14.336 9.287-23.694c0-14.144-5.173-25.326-15.516-33.557-10.34-8.231-24.626-12.348-42.848-12.348-15.616 0-28.316 2.532-38.098 7.598v29.020c10.137-7.385 21.956-11.076 35.463-11.076 8.509-0.010 15.144 1.821 19.894 5.476zM381.518 368.092c-19.595 0-35.46 15.872-35.46 35.46l0.001 37.148c0 19.588 15.865 35.46 35.46 35.46 19.598 0 35.463-15.872 35.463-35.46v-37.148c-0.004-19.588-15.869-35.46-35.464-35.46zM129.358 368.092c-19.584 0-35.46 15.872-35.46 35.46l0.001 37.148c0 19.588 15.876 35.46 35.46 35.46s35.46-15.872 35.46-35.46v-37.148c-0.001-19.588-15.877-35.46-35.461-35.46z" />
<glyph unicode="&#xe01b;" d="M160 288h64v-64h-64zM256 288h64v-64h-64zM352 288h64v-64h-64zM64 96h64v-64h-64zM160 96h64v-64h-64zM256 96h64v-64h-64zM160 192h64v-64h-64zM256 192h64v-64h-64zM352 192h64v-64h-64zM64 192h64v-64h-64zM416 480v-32h-64v32h-224v-32h-64v32h-64v-512h480v512h-64zM448 0h-416v352h416v-352z" />
<glyph unicode="&#xe01d;" d="M462.702-28.16h-413.401c-20.757 0-37.582 15.577-37.582 34.78v382.589c0 19.207 16.825 34.78 37.582 34.78h37.579v-17.39c0-28.814 25.244-52.171 56.37-52.171 31.132 0 56.373 23.36 56.373 52.171v17.39h112.743v-17.39c0-28.814 25.255-52.171 56.37-52.171 31.125 0 56.37 23.36 56.37 52.171v17.39h37.586c20.754 0 37.579-15.573 37.579-34.78v-382.588c0.010-19.204-16.815-34.781-37.569-34.781zM462.702 302.258h-413.401v-295.634h413.401v295.634zM143.253 215.307h-56.369v52.17h56.369v-52.17zM143.253 128.356h-56.369v52.167h56.369v-52.167zM143.253 41.404h-56.369v52.171h56.369v-52.171zM237.209 215.307h-56.373v52.17h56.37l-0.001-52.17zM237.209 128.356h-56.373v52.167h56.37l-0.001-52.167zM237.209 41.404h-56.373v52.171h56.37l-0.001-52.171zM331.164 215.307h-56.373v52.17h56.373v-52.17zM331.164 128.356h-56.373v52.167h56.373v-52.167zM331.164 41.404h-56.373v52.171h56.373v-52.171zM425.113 215.307h-56.37v52.17h56.37v-52.17zM425.113 128.356h-56.37v52.167h56.37v-52.167zM425.113 41.404h-56.37v52.171h56.37v-52.171zM368.16 371.819c-20.444 0-36.996 15.335-36.996 34.236v35.869c0 18.908 16.551 34.236 36.996 34.236 20.437 0 36.988-15.328 36.988-34.236v-35.868c0-18.902-16.551-34.237-36.988-34.237zM142.667 371.819c-20.434 0-36.992 15.335-36.992 34.236v35.869c0 18.908 16.558 34.236 36.992 34.236s36.995-15.328 36.995-34.236v-35.868c0-18.902-16.562-34.237-36.995-34.237z" />
<glyph unicode="&#xe600;" d="M448 352v64h-448v-352c0-17.673 14.327-32 32-32h432c26.511 0 48 21.489 48 48v272h-64zM416 64h-384v320h384v-320zM64 320h320v-32h-320zM256 256h128v-32h-128zM256 192h128v-32h-128zM256 128h96v-32h-96zM64 256h160v-160h-160z" />
<glyph unicode="&#xe601;" d="M512 265.372c0 100.463-29.396 181.969-65.741 182.613 0.146 0.003 0.289 0.015 0.436 0.015h-41.471c0 0-97.4-73.168-237.615-101.877-4.28-22.646-7.015-49.637-7.015-80.751s2.733-58.104 7.015-80.75c140.214-28.709 237.615-101.878 237.615-101.878h41.471c-0.146 0-0.289 0.012-0.436 0.016 36.348 0.644 65.741 82.149 65.741 182.612zM432.412 110.374c-4.691 0-9.766 4.871-12.373 7.774-6.315 7.032-12.396 17.98-17.594 31.664-11.628 30.616-18.033 71.655-18.033 115.562 0 43.905 6.405 84.945 18.033 115.561 5.197 13.684 11.281 24.633 17.594 31.664 2.607 2.906 7.682 7.776 12.373 7.776s9.768-4.872 12.372-7.776c6.317-7.032 12.398-17.979 17.594-31.664 11.629-30.615 18.034-71.656 18.034-115.561 0-43.902-6.405-84.944-18.034-115.562-5.195-13.684-11.281-24.632-17.594-31.664-2.604-2.903-7.68-7.774-12.372-7.774zM125.906 265.372c0 25.975 1.905 51.215 5.526 74.547-23.686-3.277-44.471-5.162-70.17-5.162-33.529 0-33.529 0-33.529 0l-27.733-47.343v-44.085l27.73-47.343c0 0 0 0 33.53 0 25.699 0 46.484-1.887 70.17-5.162-3.618 23.332-5.524 48.573-5.524 74.548zM184.075 158.914l-63.999 12.255 40.921-160.772c2.118-8.317 10.372-12.519 18.343-9.327l59.278 23.726c7.972 3.188 11.164 11.982 7.098 19.542l-61.641 114.576zM432.412 205.635c-1.809 0-3.764 1.877-4.769 2.996-2.435 2.71-4.778 6.93-6.781 12.204-4.481 11.8-6.95 27.617-6.95 44.539s2.469 32.739 6.95 44.539c2.003 5.274 4.348 9.494 6.781 12.204 1.005 1.12 2.96 2.997 4.769 2.997 1.808 0 3.765-1.878 4.769-2.997 2.435-2.71 4.778-6.929 6.78-12.204 4.482-11.799 6.951-27.617 6.951-44.539s-2.469-32.739-6.951-44.539c-2.002-5.274-4.348-9.494-6.78-12.204-1.004-1.119-2.96-2.996-4.769-2.996z" />
</font>
</defs>
</svg>
