<svg id="Layer_1" data-name="Layer 1" xmlns="http://www.w3.org/2000/svg" viewBox="0 0 196 84.14"><defs><style>.cls-1{fill:#453635;}.cls-2{fill:#0099a8;}.cls-3{fill:#fff;}</style></defs><title>logo-btw-full-light</title><g id="LABS"><path id="L" class="cls-1" d="M34.05,78.62a1,1,0,0,1,1.06,1.13v5.11a1,1,0,0,1-1.06,1.06H2.86A0.9,0.9,0,0,1,2,84.86v-51a1,1,0,0,1,1.06-1.06H8.41a1,1,0,0,1,1.06,1.06V78.62H34.05Z" transform="translate(-2 -2.25)"/><path id="B" class="cls-1" d="M150.2,71c0,8.89-7.47,14.93-15.6,14.93H113.52a1.08,1.08,0,0,1-1.12-1.13V33.89a1,1,0,0,1,1.06-1.06h19.43A14.63,14.63,0,0,1,147.29,47a13.45,13.45,0,0,1-5.22,10.69A14.84,14.84,0,0,1,150.2,71ZM131.43,55.26c11,0,11.23-15.2.13-15.2h-12v15.2h11.83Zm1.45,23.43c13,0,13.08-16.13-.07-16.13H119.67V78.69h13.22Z" transform="translate(-2 -2.25)"/><path id="S" class="cls-1" d="M165.62,73.51a1.46,1.46,0,0,1,2.11-.33c1.78,1.53,6,6,12.16,6,6.61,0,10.24-3.32,10.24-7.57,0-5.64-5.82-7.3-12.56-9.69-7.34-2.65-14.21-6.5-14.21-14.93,0-6.77,4.82-14.6,16.85-14.6,8,0,13.88,4.78,15.6,6.37a1.42,1.42,0,0,1,.33,2l-2.58,3.38a1.37,1.37,0,0,1-2.11.46c-1.72-1.33-5.82-5.18-11.3-5.18-5.95,0-9.25,3.52-9.25,7.57,0,4.84,4.56,6.5,11.3,9C189.48,58.58,198,62.43,198,71.72c0,7.7-7.4,14.67-17.78,14.67A23.49,23.49,0,0,1,163,78.62c-0.53-.53-1-1.06-0.33-1.79Z" transform="translate(-2 -2.25)"/><path id="A_-_flask" data-name="A - flask" class="cls-1" d="M99.63,84.77L74.82,33.09c-0.26-.47-0.54-1.41-1.35-1.41s-1,.94-1.3,1.41L47.3,84.77A0.77,0.77,0,0,0,48,86H55.3l13.47-28V50.8H67.23V48.94H79.68v1.83h-1.5v7.05L91.72,86H99A0.73,0.73,0,0,0,99.63,84.77Z" transform="translate(-2 -2.25)"/><path id="liquid" class="cls-2" d="M68.84,66s-6.69,14.28-6.9,14.74a1.2,1.2,0,0,0,.94,1.78c0.9,0,20.37,0,21.17,0A1.24,1.24,0,0,0,85,80.69C84.64,80,78.16,66,78.16,66s-0.51-1.11-2.67-.09c-1.75.83-2.27-1-4.49-1.11A2.1,2.1,0,0,0,68.84,66Z" transform="translate(-2 -2.25)"/><g id="bubbles_in_flask" data-name="bubbles in flask"><ellipse class="cls-3" cx="73.61" cy="69.5" rx="1.81" ry="1.82"/><ellipse class="cls-3" cx="69.45" cy="73.18" rx="1.16" ry="1.16"/><circle class="cls-3" cx="72.74" cy="76.67" r="0.86"/></g><g id="bubbles_top" data-name="bubbles top"><ellipse class="cls-3" cx="71.65" cy="36.22" rx="1.81" ry="1.82"/><ellipse class="cls-3" cx="73.4" cy="40.68" rx="1.16" ry="1.16"/><circle class="cls-3" cx="70.12" cy="43.66" r="0.89"/></g></g><g id="BY_THE_WAY" data-name="BY THE WAY"><path id="B-2" data-name="B" class="cls-2" d="M15,15.16a5.08,5.08,0,0,1-5.23,5H2.69a0.36,0.36,0,0,1-.38-0.38V2.72a0.34,0.34,0,0,1,.35-0.36H9.18A4.91,4.91,0,0,1,14,7.12a4.51,4.51,0,0,1-1.75,3.58A5,5,0,0,1,15,15.16ZM8.7,9.88a2.56,2.56,0,1,0,0-5.1h-4v5.1h4Zm0.49,7.86c4.34,0,4.39-5.41,0-5.41H4.75v5.41H9.18Z" transform="translate(-2 -2.25)"/><path id="Y" class="cls-1" d="M35.79,2.36a0.25,0.25,0,0,1,.18.4L29.34,12.91v6.88a0.33,0.33,0,0,1-.33.38h-1.8a0.33,0.33,0,0,1-.37-0.38V12.91L20.21,2.76a0.25,0.25,0,0,1,.2-0.4H22.6a0.5,0.5,0,0,1,.38.33l5.12,7.7,5.1-7.7a0.51,0.51,0,0,1,.38-0.33h2.22Z" transform="translate(-2 -2.25)"/><path id="T" class="cls-2" d="M67.15,2.36a0.34,0.34,0,0,1,.35.36v1.8a0.35,0.35,0,0,1-.35.36H61.81V19.79a0.33,0.33,0,0,1-.35.38h-1.8a0.34,0.34,0,0,1-.35-0.38V4.87H54a0.36,0.36,0,0,1-.38-0.36V2.74A0.36,0.36,0,0,1,54,2.36H67.15Z" transform="translate(-2 -2.25)"/><path id="H" class="cls-1" d="M90.42,2.36a0.36,0.36,0,0,1,.38.36V19.79a0.33,0.33,0,0,1-.33.38H88.64a0.34,0.34,0,0,1-.35-0.38V12.71H78.43v7.08a0.37,0.37,0,0,1-.35.38H76.3a0.36,0.36,0,0,1-.38-0.38V2.72a0.34,0.34,0,0,1,.35-0.36H78a0.36,0.36,0,0,1,.38.36v7.48h9.86V2.72a0.34,0.34,0,0,1,.35-0.36h1.77Z" transform="translate(-2 -2.25)"/><path id="E" class="cls-1" d="M103.24,10.22h5a0.37,0.37,0,0,1,.38.38v1.69a0.35,0.35,0,0,1-.38.38h-5v5.05H112a0.35,0.35,0,0,1,.38.38v1.69a0.36,0.36,0,0,1-.38.38H101.13a0.36,0.36,0,0,1-.38-0.38V2.72a0.34,0.34,0,0,1,.35-0.36H112a0.36,0.36,0,0,1,.38.36V4.45a0.34,0.34,0,0,1-.38.36h-8.73v5.41Z" transform="translate(-2 -2.25)"/><path id="W" class="cls-2" d="M151.19,20L145.86,8.56a0.23,0.23,0,0,0-.41,0L140,20a0.23,0.23,0,0,1-.42,0L132,2.72a0.23,0.23,0,0,1,.21-0.32h2.09a0.23,0.23,0,0,1,.21.13l5.21,11.33a0.23,0.23,0,0,0,.41,0l5.24-11.33a0.23,0.23,0,0,1,.21-0.13h0.22a0.23,0.23,0,0,1,.21.13l5.15,11.33a0.23,0.23,0,0,0,.41,0l5.31-11.34A0.23,0.23,0,0,1,157,2.39h2.09a0.23,0.23,0,0,1,.21.32L151.6,20A0.23,0.23,0,0,1,151.19,20Z" transform="translate(-2 -2.25)"/><path id="A" class="cls-1" d="M179.11,19.76c0.11,0.22,0,.4-0.22.4h-2a0.37,0.37,0,0,1-.38-0.24l-1.31-2.78h-9.66l-1.31,2.78a0.39,0.39,0,0,1-.38.24h-2a0.26,0.26,0,0,1-.24-0.4l8.33-17.32a0.32,0.32,0,0,1,.31-0.2h0.27a0.32,0.32,0,0,1,.31.2ZM170.35,6.86L166.54,15h7.62Z" transform="translate(-2 -2.25)"/><path id="Y-2" data-name="Y" class="cls-1" d="M196.72,2.36a0.25,0.25,0,0,1,.18.4l-6.63,10.15v6.88a0.33,0.33,0,0,1-.33.38H188.1a0.33,0.33,0,0,1-.33-0.38V12.91L181.14,2.76a0.25,0.25,0,0,1,.2-0.4h2.19a0.5,0.5,0,0,1,.38.33l5.12,7.7,5.1-7.7a0.51,0.51,0,0,1,.38-0.33h2.22Z" transform="translate(-2 -2.25)"/></g></svg>